<?xml version="1.0" encoding="UTF-8" standalone="no"?>
<!-- Created with Inkscape (http://www.inkscape.org/) -->

<svg
   version="1.1"
   id="svg1"
   width="793.27997"
   height="1122.5601"
   viewBox="0 0 793.27997 1122.5601"
   sodipodi:docname="Resume Builder2.pdf"
   xmlns:inkscape="http://www.inkscape.org/namespaces/inkscape"
   xmlns:sodipodi="http://sodipodi.sourceforge.net/DTD/sodipodi-0.dtd"
   xmlns="http://www.w3.org/2000/svg"
   xmlns:svg="http://www.w3.org/2000/svg">
  <defs
     id="defs1">
    <clipPath
       clipPathUnits="userSpaceOnUse"
       id="clipPath3">
      <path
         d="M 0,0 H 2479.9316 V 3507.959 H 0 Z"
         transform="scale(0.32886649)"
         clip-rule="evenodd"
         id="path3" />
    </clipPath>
    <clipPath
       clipPathUnits="userSpaceOnUse"
       id="clipPath4">
      <path
         d="M 0,0 H 2479.9316 V 3507.959 H 0 Z"
         transform="matrix(0.32886649,0,0,0.32886649,-70,-62)"
         clip-rule="evenodd"
         id="path4" />
    </clipPath>
    <clipPath
       clipPathUnits="userSpaceOnUse"
       id="clipPath5">
      <path
         d="M 0,0 H 2479.9316 V 3507.959 H 0 Z"
         transform="matrix(0.32886649,0,0,0.32886649,-75,-89)"
         clip-rule="evenodd"
         id="path5" />
    </clipPath>
    <clipPath
       clipPathUnits="userSpaceOnUse"
       id="clipPath6">
      <path
         d="M 0,0 H 2479.9316 V 3507.959 H 0 Z"
         transform="matrix(0.32886649,0,0,0.32886649,-80,-136)"
         clip-rule="evenodd"
         id="path6" />
    </clipPath>
    <clipPath
       clipPathUnits="userSpaceOnUse"
       id="clipPath7">
      <path
         d="M 0,0 H 2479.9316 V 3507.959 H 0 Z"
         transform="matrix(0.32886649,0,0,0.32886649,-80,-152)"
         clip-rule="evenodd"
         id="path7" />
    </clipPath>
    <clipPath
       clipPathUnits="userSpaceOnUse"
       id="clipPath8">
      <path
         d="M 0,0 H 2479.9316 V 3507.959 H 0 Z"
         transform="matrix(0.32886649,0,0,0.32886649,-80,-168)"
         clip-rule="evenodd"
         id="path8" />
    </clipPath>
    <clipPath
       clipPathUnits="userSpaceOnUse"
       id="clipPath10">
      <path
         d="M 0,0 H 2479.9316 V 3507.959 H 0 Z"
         transform="scale(0.32886649)"
         clip-rule="evenodd"
         id="path10" />
    </clipPath>
    <clipPath
       clipPathUnits="userSpaceOnUse"
       id="clipPath12">
      <path
         d="M 0,0 H 2479.9316 V 3507.959 H 0 Z"
         transform="scale(0.32886649)"
         clip-rule="evenodd"
         id="path12" />
    </clipPath>
    <clipPath
       clipPathUnits="userSpaceOnUse"
       id="clipPath14">
      <path
         d="M 0,0 H 2479.9316 V 3507.959 H 0 Z"
         transform="scale(0.32886649)"
         clip-rule="evenodd"
         id="path14" />
    </clipPath>
    <clipPath
       clipPathUnits="userSpaceOnUse"
       id="clipPath16">
      <path
         d="M 0,0 H 2479.9316 V 3507.959 H 0 Z"
         transform="scale(0.32886649)"
         clip-rule="evenodd"
         id="path16" />
    </clipPath>
    <clipPath
       clipPathUnits="userSpaceOnUse"
       id="clipPath18">
      <path
         d="M 0,0 H 2479.9316 V 3507.959 H 0 Z"
         transform="scale(0.32886649)"
         clip-rule="evenodd"
         id="path18" />
    </clipPath>
    <clipPath
       clipPathUnits="userSpaceOnUse"
       id="clipPath20">
      <path
         d="M 0,0 H 2479.9316 V 3507.959 H 0 Z"
         transform="scale(0.32886649)"
         clip-rule="evenodd"
         id="path20" />
    </clipPath>
    <clipPath
       clipPathUnits="userSpaceOnUse"
       id="clipPath22">
      <path
         d="M 0,0 H 2479.9316 V 3507.959 H 0 Z"
         transform="scale(0.32886649)"
         clip-rule="evenodd"
         id="path22" />
    </clipPath>
    <clipPath
       clipPathUnits="userSpaceOnUse"
       id="clipPath24">
      <path
         d="M 0,0 H 2479.9316 V 3507.959 H 0 Z"
         transform="scale(0.32886649)"
         clip-rule="evenodd"
         id="path24" />
    </clipPath>
    <clipPath
       clipPathUnits="userSpaceOnUse"
       id="clipPath26">
      <path
         d="M 0,0 H 2479.9316 V 3507.959 H 0 Z"
         transform="scale(0.32886649)"
         clip-rule="evenodd"
         id="path26" />
    </clipPath>
    <clipPath
       clipPathUnits="userSpaceOnUse"
       id="clipPath28">
      <path
         d="M 0,0 H 2479.9316 V 3507.959 H 0 Z"
         transform="scale(0.32886649)"
         clip-rule="evenodd"
         id="path28" />
    </clipPath>
    <clipPath
       clipPathUnits="userSpaceOnUse"
       id="clipPath30">
      <path
         d="M 0,0 H 2479.9316 V 3507.959 H 0 Z"
         transform="scale(0.32886649)"
         clip-rule="evenodd"
         id="path30" />
    </clipPath>
    <clipPath
       clipPathUnits="userSpaceOnUse"
       id="clipPath32">
      <path
         d="M 0,0 H 2479.9316 V 3507.959 H 0 Z"
         transform="scale(0.32886649)"
         clip-rule="evenodd"
         id="path32" />
    </clipPath>
    <clipPath
       clipPathUnits="userSpaceOnUse"
       id="clipPath34">
      <path
         d="M 0,0 H 2479.9316 V 3507.959 H 0 Z"
         transform="scale(0.32886649)"
         clip-rule="evenodd"
         id="path34" />
    </clipPath>
    <clipPath
       clipPathUnits="userSpaceOnUse"
       id="clipPath36">
      <path
         d="M 0,0 H 2479.9316 V 3507.959 H 0 Z"
         transform="matrix(0.32886649,0,0,0.32886649,-38,-268)"
         clip-rule="evenodd"
         id="path36" />
    </clipPath>
    <clipPath
       clipPathUnits="userSpaceOnUse"
       id="clipPath37">
      <path
         d="M 0,0 H 2479.9316 V 3507.959 H 0 Z"
         transform="matrix(0.32886649,0,0,0.32886649,-30,-300)"
         clip-rule="evenodd"
         id="path37" />
    </clipPath>
    <clipPath
       clipPathUnits="userSpaceOnUse"
       id="clipPath39">
      <path
         d="M 0,0 H 2479.9316 V 3507.959 H 0 Z"
         transform="scale(0.32886649)"
         clip-rule="evenodd"
         id="path39" />
    </clipPath>
    <clipPath
       clipPathUnits="userSpaceOnUse"
       id="clipPath41">
      <path
         d="M 0,0 H 2479.9316 V 3507.959 H 0 Z"
         transform="matrix(0.32886649,0,0,0.32886649,-38,-362)"
         clip-rule="evenodd"
         id="path41" />
    </clipPath>
    <clipPath
       clipPathUnits="userSpaceOnUse"
       id="clipPath42">
      <path
         d="M 0,0 H 2479.9316 V 3507.959 H 0 Z"
         transform="matrix(0.32886649,0,0,0.32886649,-30,-394)"
         clip-rule="evenodd"
         id="path42" />
    </clipPath>
    <clipPath
       clipPathUnits="userSpaceOnUse"
       id="clipPath43">
      <path
         d="M 0,0 H 2479.9316 V 3507.959 H 0 Z"
         transform="matrix(0.32886649,0,0,0.32886649,-20,-445)"
         clip-rule="evenodd"
         id="path43" />
    </clipPath>
    <clipPath
       clipPathUnits="userSpaceOnUse"
       id="clipPath44">
      <path
         d="M 0,0 H 2479.9316 V 3507.959 H 0 Z"
         transform="matrix(0.32886649,0,0,0.32886649,-28,-487)"
         clip-rule="evenodd"
         id="path44" />
    </clipPath>
    <clipPath
       clipPathUnits="userSpaceOnUse"
       id="clipPath45">
      <path
         d="M 0,0 H 2479.9316 V 3507.959 H 0 Z"
         transform="matrix(0.32886649,0,0,0.32886649,-28,-531)"
         clip-rule="evenodd"
         id="path45" />
    </clipPath>
    <clipPath
       clipPathUnits="userSpaceOnUse"
       id="clipPath46">
      <path
         d="M 0,0 H 2479.9316 V 3507.959 H 0 Z"
         transform="matrix(0.32886649,0,0,0.32886649,-28,-575.00001)"
         clip-rule="evenodd"
         id="path46" />
    </clipPath>
    <clipPath
       clipPathUnits="userSpaceOnUse"
       id="clipPath47">
      <path
         d="M 0,0 H 2479.9316 V 3507.959 H 0 Z"
         transform="matrix(0.32886649,0,0,0.32886649,-28,-619)"
         clip-rule="evenodd"
         id="path47" />
    </clipPath>
    <clipPath
       clipPathUnits="userSpaceOnUse"
       id="clipPath48">
      <path
         d="M 0,0 H 2479.9316 V 3507.959 H 0 Z"
         transform="matrix(0.32886649,0,0,0.32886649,-28,-663)"
         clip-rule="evenodd"
         id="path48" />
    </clipPath>
    <clipPath
       clipPathUnits="userSpaceOnUse"
       id="clipPath49">
      <path
         d="M 0,0 H 2479.9316 V 3507.959 H 0 Z"
         transform="matrix(0.32886649,0,0,0.32886649,-20,-711.00001)"
         clip-rule="evenodd"
         id="path49" />
    </clipPath>
    <clipPath
       clipPathUnits="userSpaceOnUse"
       id="clipPath50">
      <path
         d="M 0,0 H 2479.9316 V 3507.959 H 0 Z"
         transform="matrix(0.32886649,0,0,0.32886649,-28,-753)"
         clip-rule="evenodd"
         id="path50" />
    </clipPath>
    <clipPath
       clipPathUnits="userSpaceOnUse"
       id="clipPath51">
      <path
         d="M 0,0 H 2479.9316 V 3507.959 H 0 Z"
         transform="matrix(0.32886649,0,0,0.32886649,-28,-797.00001)"
         clip-rule="evenodd"
         id="path51" />
    </clipPath>
    <clipPath
       clipPathUnits="userSpaceOnUse"
       id="clipPath52">
      <path
         d="M 0,0 H 2479.9316 V 3507.959 H 0 Z"
         transform="matrix(0.32886649,0,0,0.32886649,-20,-845)"
         clip-rule="evenodd"
         id="path52" />
    </clipPath>
    <clipPath
       clipPathUnits="userSpaceOnUse"
       id="clipPath53">
      <path
         d="M 0,0 H 2479.9316 V 3507.959 H 0 Z"
         transform="matrix(0.32886649,0,0,0.32886649,-28,-887)"
         clip-rule="evenodd"
         id="path53" />
    </clipPath>
    <clipPath
       clipPathUnits="userSpaceOnUse"
       id="clipPath54">
      <path
         d="M 0,0 H 2479.9316 V 3507.959 H 0 Z"
         transform="matrix(0.32886649,0,0,0.32886649,-28,-931)"
         clip-rule="evenodd"
         id="path54" />
    </clipPath>
    <clipPath
       clipPathUnits="userSpaceOnUse"
       id="clipPath56">
      <path
         d="M 0,0 H 2479.9316 V 3507.959 H 0 Z"
         transform="scale(0.32886649)"
         clip-rule="evenodd"
         id="path56" />
    </clipPath>
    <clipPath
       clipPathUnits="userSpaceOnUse"
       id="clipPath58">
      <path
         d="M 0,0 H 2479.9316 V 3507.959 H 0 Z"
         transform="scale(0.32886649)"
         clip-rule="evenodd"
         id="path58" />
    </clipPath>
    <clipPath
       clipPathUnits="userSpaceOnUse"
       id="clipPath60">
      <path
         d="M 0,0 H 2479.9316 V 3507.959 H 0 Z"
         transform="scale(0.32886649)"
         clip-rule="evenodd"
         id="path60" />
    </clipPath>
    <clipPath
       clipPathUnits="userSpaceOnUse"
       id="clipPath61">
      <path
         d="M 0,0 H 2479.9316 V 3507.959 H 0 Z"
         transform="matrix(0.32886649,0,0,0.32886649,-291.64063,-269)"
         clip-rule="evenodd"
         id="path61" />
    </clipPath>
    <clipPath
       clipPathUnits="userSpaceOnUse"
       id="clipPath62">
      <path
         d="M 0,0 H 2479.9316 V 3507.959 H 0 Z"
         transform="matrix(0.32886649,0,0,0.32886649,-296.64063,-304)"
         clip-rule="evenodd"
         id="path62" />
    </clipPath>
    <clipPath
       clipPathUnits="userSpaceOnUse"
       id="clipPath63">
      <path
         d="M 0,0 H 2479.9316 V 3507.959 H 0 Z"
         transform="matrix(0.32886649,0,0,0.32886649,-296.64063,-331)"
         clip-rule="evenodd"
         id="path63" />
    </clipPath>
    <clipPath
       clipPathUnits="userSpaceOnUse"
       id="clipPath64">
      <path
         d="M 0,0 H 2479.9316 V 3507.959 H 0 Z"
         transform="matrix(0.32886649,0,0,0.32886649,-296.64063,-364)"
         clip-rule="evenodd"
         id="path64" />
    </clipPath>
    <clipPath
       clipPathUnits="userSpaceOnUse"
       id="clipPath65">
      <path
         d="M 0,0 H 2479.9316 V 3507.959 H 0 Z"
         transform="matrix(0.32886649,0,0,0.32886649,-296.64063,-391)"
         clip-rule="evenodd"
         id="path65" />
    </clipPath>
    <clipPath
       clipPathUnits="userSpaceOnUse"
       id="clipPath66">
      <path
         d="M 0,0 H 2479.9316 V 3507.959 H 0 Z"
         transform="matrix(0.32886649,0,0,0.32886649,-296.64063,-424)"
         clip-rule="evenodd"
         id="path66" />
    </clipPath>
    <clipPath
       clipPathUnits="userSpaceOnUse"
       id="clipPath67">
      <path
         d="M 0,0 H 2479.9316 V 3507.959 H 0 Z"
         transform="matrix(0.32886649,0,0,0.32886649,-296.64063,-451.00001)"
         clip-rule="evenodd"
         id="path67" />
    </clipPath>
    <clipPath
       clipPathUnits="userSpaceOnUse"
       id="clipPath68">
      <path
         d="M 0,0 H 2479.9316 V 3507.959 H 0 Z"
         transform="matrix(0.32886649,0,0,0.32886649,-291.64063,-493)"
         clip-rule="evenodd"
         id="path68" />
    </clipPath>
    <clipPath
       clipPathUnits="userSpaceOnUse"
       id="clipPath69">
      <path
         d="M 0,0 H 2479.9316 V 3507.959 H 0 Z"
         transform="matrix(0.32886649,0,0,0.32886649,-296.64063,-528)"
         clip-rule="evenodd"
         id="path69" />
    </clipPath>
    <clipPath
       clipPathUnits="userSpaceOnUse"
       id="clipPath71">
      <path
         d="M 0,0 H 2479.9316 V 3507.959 H 0 Z"
         transform="scale(0.32886649)"
         clip-rule="evenodd"
         id="path71" />
    </clipPath>
    <clipPath
       clipPathUnits="userSpaceOnUse"
       id="clipPath72">
      <path
         d="M 0,0 H 2479.9316 V 3507.959 H 0 Z"
         transform="matrix(0.32886649,0,0,0.32886649,-311.64063,-562.00001)"
         clip-rule="evenodd"
         id="path72" />
    </clipPath>
    <clipPath
       clipPathUnits="userSpaceOnUse"
       id="clipPath73">
      <path
         d="M 0,0 H 2479.9316 V 3507.959 H 0 Z"
         transform="matrix(0.32886649,0,0,0.32886649,-311.64063,-580)"
         clip-rule="evenodd"
         id="path73" />
    </clipPath>
    <clipPath
       clipPathUnits="userSpaceOnUse"
       id="clipPath74">
      <path
         d="M 0,0 H 2479.9316 V 3507.959 H 0 Z"
         transform="matrix(0.32886649,0,0,0.32886649,-311.64063,-598)"
         clip-rule="evenodd"
         id="path74" />
    </clipPath>
    <clipPath
       clipPathUnits="userSpaceOnUse"
       id="clipPath75">
      <path
         d="M 0,0 H 2479.9316 V 3507.959 H 0 Z"
         transform="matrix(0.32886649,0,0,0.32886649,-311.64063,-616)"
         clip-rule="evenodd"
         id="path75" />
    </clipPath>
    <clipPath
       clipPathUnits="userSpaceOnUse"
       id="clipPath76">
      <path
         d="M 0,0 H 2479.9316 V 3507.959 H 0 Z"
         transform="matrix(0.32886649,0,0,0.32886649,-296.64063,-650)"
         clip-rule="evenodd"
         id="path76" />
    </clipPath>
    <clipPath
       clipPathUnits="userSpaceOnUse"
       id="clipPath78">
      <path
         d="M 0,0 H 2479.9316 V 3507.959 H 0 Z"
         transform="scale(0.32886649)"
         clip-rule="evenodd"
         id="path78" />
    </clipPath>
    <clipPath
       clipPathUnits="userSpaceOnUse"
       id="clipPath79">
      <path
         d="M 0,0 H 2479.9316 V 3507.959 H 0 Z"
         transform="matrix(0.32886649,0,0,0.32886649,-311.64063,-684)"
         clip-rule="evenodd"
         id="path79" />
    </clipPath>
    <clipPath
       clipPathUnits="userSpaceOnUse"
       id="clipPath80">
      <path
         d="M 0,0 H 2479.9316 V 3507.959 H 0 Z"
         transform="matrix(0.32886649,0,0,0.32886649,-311.64063,-702)"
         clip-rule="evenodd"
         id="path80" />
    </clipPath>
    <clipPath
       clipPathUnits="userSpaceOnUse"
       id="clipPath81">
      <path
         d="M 0,0 H 2479.9316 V 3507.959 H 0 Z"
         transform="matrix(0.32886649,0,0,0.32886649,-311.64063,-720)"
         clip-rule="evenodd"
         id="path81" />
    </clipPath>
    <clipPath
       clipPathUnits="userSpaceOnUse"
       id="clipPath82">
      <path
         d="M 0,0 H 2479.9316 V 3507.959 H 0 Z"
         transform="matrix(0.32886649,0,0,0.32886649,-311.64063,-738)"
         clip-rule="evenodd"
         id="path82" />
    </clipPath>
    <clipPath
       clipPathUnits="userSpaceOnUse"
       id="clipPath83">
      <path
         d="M 0,0 H 2479.9316 V 3507.959 H 0 Z"
         transform="matrix(0.32886649,0,0,0.32886649,-296.64063,-772.00001)"
         clip-rule="evenodd"
         id="path83" />
    </clipPath>
    <clipPath
       clipPathUnits="userSpaceOnUse"
       id="clipPath85">
      <path
         d="M 0,0 H 2479.9316 V 3507.959 H 0 Z"
         transform="scale(0.32886649)"
         clip-rule="evenodd"
         id="path85" />
    </clipPath>
    <clipPath
       clipPathUnits="userSpaceOnUse"
       id="clipPath86">
      <path
         d="M 0,0 H 2479.9316 V 3507.959 H 0 Z"
         transform="matrix(0.32886649,0,0,0.32886649,-311.64063,-806)"
         clip-rule="evenodd"
         id="path86" />
    </clipPath>
    <clipPath
       clipPathUnits="userSpaceOnUse"
       id="clipPath87">
      <path
         d="M 0,0 H 2479.9316 V 3507.959 H 0 Z"
         transform="matrix(0.32886649,0,0,0.32886649,-311.64063,-824)"
         clip-rule="evenodd"
         id="path87" />
    </clipPath>
    <clipPath
       clipPathUnits="userSpaceOnUse"
       id="clipPath88">
      <path
         d="M 0,0 H 2479.9316 V 3507.959 H 0 Z"
         transform="matrix(0.32886649,0,0,0.32886649,-311.64063,-842)"
         clip-rule="evenodd"
         id="path88" />
    </clipPath>
    <clipPath
       clipPathUnits="userSpaceOnUse"
       id="clipPath89">
      <path
         d="M 0,0 H 2479.9316 V 3507.959 H 0 Z"
         transform="matrix(0.32886649,0,0,0.32886649,-311.64063,-860)"
         clip-rule="evenodd"
         id="path89" />
    </clipPath>
    <clipPath
       clipPathUnits="userSpaceOnUse"
       id="clipPath90">
      <path
         d="M 0,0 H 2479.9316 V 3507.959 H 0 Z"
         transform="matrix(0.32886649,0,0,0.32886649,-291.64063,-901)"
         clip-rule="evenodd"
         id="path90" />
    </clipPath>
    <clipPath
       clipPathUnits="userSpaceOnUse"
       id="clipPath91">
      <path
         d="M 0,0 H 2479.9316 V 3507.959 H 0 Z"
         transform="matrix(0.32886649,0,0,0.32886649,-296.64063,-936)"
         clip-rule="evenodd"
         id="path91" />
    </clipPath>
    <clipPath
       clipPathUnits="userSpaceOnUse"
       id="clipPath92">
      <path
         d="M 0,0 H 2479.9316 V 3507.959 H 0 Z"
         transform="matrix(0.32886649,0,0,0.32886649,-296.64063,-963)"
         clip-rule="evenodd"
         id="path92" />
    </clipPath>
    <clipPath
       clipPathUnits="userSpaceOnUse"
       id="clipPath93">
      <path
         d="M 0,0 H 2479.9316 V 3507.959 H 0 Z"
         transform="matrix(0.32886649,0,0,0.32886649,-296.64063,-996)"
         clip-rule="evenodd"
         id="path93" />
    </clipPath>
    <clipPath
       clipPathUnits="userSpaceOnUse"
       id="clipPath94">
      <path
         d="M 0,0 H 2479.9316 V 3507.959 H 0 Z"
         transform="matrix(0.32886649,0,0,0.32886649,-296.64063,-1023)"
         clip-rule="evenodd"
         id="path94" />
    </clipPath>
    <clipPath
       clipPathUnits="userSpaceOnUse"
       id="clipPath95">
      <path
         d="M 0,0 H 2479.9316 V 3507.959 H 0 Z"
         transform="matrix(0.32886649,0,0,0.32886649,-296.64063,-1056)"
         clip-rule="evenodd"
         id="path95" />
    </clipPath>
    <clipPath
       clipPathUnits="userSpaceOnUse"
       id="clipPath96">
      <path
         d="M 0,0 H 2479.9316 V 3507.959 H 0 Z"
         transform="matrix(0.32886649,0,0,0.32886649,-296.64063,-1083)"
         clip-rule="evenodd"
         id="path96" />
    </clipPath>
  </defs>
  <sodipodi:namedview
     id="namedview1"
     pagecolor="#ffffff"
     bordercolor="#000000"
     borderopacity="0.25"
     inkscape:showpageshadow="2"
     inkscape:pageopacity="0.0"
     inkscape:pagecheckerboard="0"
     inkscape:deskcolor="#d1d1d1">
    <inkscape:page
       x="0"
       y="0"
       inkscape:label="1"
       id="page1"
       width="793.27997"
       height="1122.5601"
       margin="0"
       bleed="0" />
  </sodipodi:namedview>
  <g
     id="g1"
     inkscape:groupmode="layer"
     inkscape:label="1">
    <path
       id="path1"
       d="M 0,0 H 816 V 1154 H 0 Z"
       style="fill:#ffffff;fill-opacity:1;fill-rule:nonzero;stroke:none"
       transform="scale(0.97303919)" />
    <path
       id="path2"
       d="M 0,0 H 816 V 207 H 0 Z"
       style="fill:#000080;fill-opacity:1;fill-rule:nonzero;stroke:none"
       transform="scale(0.97303919)"
       clip-path="url(#clipPath3)" />
    <text
       id="text3"
       xml:space="preserve"
       transform="matrix(0.97303919,0,0,0.97303919,68.112743,60.32843)"
       clip-path="url(#clipPath4)"><tspan
         style="font-variant:normal;font-weight:700;font-size:32px;font-family:Arial;writing-mode:lr-tb;fill:#ffffff;fill-opacity:1;fill-rule:nonzero;stroke:none"
         x="0 26.65625 46.203125 65.75 83.546875 112 140.45312 158.25 177.79688 186.6875 203.85938 221.65625 239.45312 257.25 275.04688"
         y="0"
         sodipodi:role="line"
         id="tspan3">Muhammad Tayyab</tspan></text>
    <text
       id="text4"
       xml:space="preserve"
       transform="matrix(0.97303919,0,0,0.97303919,72.977939,86.600488)"
       clip-path="url(#clipPath5)"><tspan
         style="font-variant:normal;font-weight:700;font-size:16px;font-family:Arial;writing-mode:lr-tb;fill:#ffffff;fill-opacity:1;fill-rule:nonzero;stroke:none"
         x="0 12.445312 18.671875 27.570312 37.34375 47.117188 51.5625 60.460938 69.359375 73.804688 85.359375 94.257812 103.15625 107.60156 117.375 127.14844 136.04688"
         y="0"
         sodipodi:role="line"
         id="tspan4">Graphics Designer</tspan></text>
    <text
       id="text5"
       xml:space="preserve"
       transform="matrix(0.97303919,0,0,0.97303919,77.843135,132.33333)"
       clip-path="url(#clipPath6)"><tspan
         style="font-variant:normal;font-weight:normal;font-size:14px;font-family:Arial;writing-mode:lr-tb;fill:#ffffff;fill-opacity:1;fill-rule:nonzero;stroke:none"
         x="0 7.7861328 15.572266 20.234375 28.020508 39.682617 43.572266 46.682617 54.46875 61.46875 69.254883 80.916992 84.806641 92.592773 100.37891 103.48926 111.27539 115.9375 119.82715 126.82715 129.9375 133.82715 137.7168 141.60645 149.39258 161.05469 168.84082 172.73047 176.62012 183.62012 191.40625 199.19238 206.19238 213.97852 220.97852 224.86816 232.6543 236.54395 244.33008 248.99219 252.88184 260.66797 268.4541 271.56445 279.35059 282.46094 289.46094 292.57129 299.57129 302.68164 310.46777 318.25391 322.14355 329.92969 333.04004 336.15039 340.04004 343.92969 347.81934 357.92969 365.71582 368.82617 376.6123 381.27441 389.06055 400.72266 408.50879 416.29492 424.08105 427.9707 431.08105 438.86719 445.86719 449.75684 457.54297 461.43262 469.21875 472.3291 479.3291 483.21875 486.3291 494.11523 501.11523 505.00488 508.11523 515.90137 519.79102 527.57715 531.4668 535.35645 543.14258 550.92871 562.59082 566.48047 570.37012 578.15625 585.15625 592.15625 599.94238 606.94238 614.72852 622.51465 626.4043 629.51465 637.30078 648.96289"
         y="0"
         sodipodi:role="line"
         id="tspan5">Lorem ipsum dolor sit, amet consectetur adipisicing elit. Doloremque iusto distinctio et nam, accusantium,</tspan></text>
    <text
       id="text6"
       xml:space="preserve"
       transform="matrix(0.97303919,0,0,0.97303919,77.843135,147.90196)"
       clip-path="url(#clipPath7)"><tspan
         style="font-variant:normal;font-weight:normal;font-size:14px;font-family:Arial;writing-mode:lr-tb;fill:#ffffff;fill-opacity:1;fill-rule:nonzero;stroke:none"
         x="0 7.7861328 15.572266 22.572266 30.358398 35.020508 42.806641 50.592773 54.482422 58.37207 62.261719 70.047852 77.833984 85.620117 89.509766 97.295898 101.95801 105.84766 113.63379 121.41992 128.41992 132.30957 140.0957 147.88184 154.88184 158.77148 163.43359 171.21973 182.88184 186.77148 194.55762 201.55762 208.55762 216.34375 228.00586 235.79199 243.57812 251.36426 259.15039 263.04004 270.82617 278.6123 281.72266 289.50879 294.1709 301.95703 313.61914 317.50879 322.1709 329.95703 341.61914 345.50879 353.29492 360.29492 367.29492 375.08105 378.9707 386.75684 389.86719 392.97754 400.76367 408.5498 411.66016 419.44629 423.33594 431.12207 438.9082 446.69434 454.48047 462.2666 466.15625 473.15625 480.94238 488.72852 495.72852 503.51465 511.30078 519.08691 526.87305 530.7627 538.54883 543.21094 547.10059 554.10059 561.88672 569.67285 572.7832 580.56934 592.23145 596.12109 603.12109 610.90723 622.56934 634.23145 642.01758 649.80371 652.91406 656.80371 664.58984"
         y="0"
         sodipodi:role="line"
         id="tspan6">deserunt tenetur eos nostrum assumenda dolorem rem esse aliquid neque consequatur veniam commodi ab</tspan></text>
    <text
       id="text7"
       xml:space="preserve"
       transform="matrix(0.97303919,0,0,0.97303919,77.843135,163.47058)"
       clip-path="url(#clipPath8)"><tspan
         style="font-variant:normal;font-weight:normal;font-size:14px;font-family:Arial;writing-mode:lr-tb;fill:#ffffff;fill-opacity:1;fill-rule:nonzero;stroke:none"
         x="0 7.7861328 15.572266 20.234375 24.896484 32.682617 36.572266 48.234375 51.344727 59.130859 66.916992 73.916992"
         y="0"
         sodipodi:role="line"
         id="tspan7">porro minus?</tspan></text>
    <path
       id="path9"
       d="m 20,452 h 130 v 2 H 20 Z"
       style="fill:#000080;fill-opacity:1;fill-rule:nonzero;stroke:none"
       transform="scale(0.97303919)"
       clip-path="url(#clipPath10)" />
    <path
       id="path11"
       d="m 20,486 v -8 c -2e-6,-0.78793 0.07686,-1.56833 0.230576,-2.34113 0.153715,-0.77279 0.381338,-1.52319 0.682867,-2.25112 0.301527,-0.72797 0.671165,-1.41953 1.108919,-2.07465 0.43775,-0.65512 0.935201,-1.26126 1.492355,-1.81842 0.557152,-0.55716 1.163298,-1.0546 1.818438,-1.49234 0.65514,-0.43778 1.346687,-0.8074 2.07464,-1.10895 0.727953,-0.30151 1.478325,-0.52911 2.251118,-0.6828 C 30.431705,466.07687 31.212069,466 32,466 h 112 c 0.78792,0 1.56828,0.0768 2.34106,0.23056 0.77279,0.15372 1.52317,0.38132 2.25112,0.6828 0.72795,0.30154 1.41951,0.6712 2.07466,1.10895 0.65514,0.43777 1.26129,0.93521 1.81843,1.49237 0.55715,0.55716 1.0546,1.1633 1.49234,1.81842 0.43776,0.65512 0.80739,1.34668 1.10892,2.07465 0.30152,0.72793 0.52915,1.47833 0.68288,2.25112 0.15372,0.7728 0.23057,1.5532 0.23059,2.34113 v 8 c -2e-5,0.7879 -0.0769,1.56824 -0.23059,2.34103 -0.15373,0.7728 -0.38136,1.52317 -0.68288,2.2511 -0.30153,0.72794 -0.67116,1.4195 -1.10892,2.07465 -0.43774,0.65512 -0.93519,1.26129 -1.49234,1.81845 -0.55714,0.55716 -1.16329,1.0546 -1.81845,1.49231 -0.65513,0.43777 -1.34669,0.8074 -2.07464,1.10895 -0.72795,0.30154 -1.47833,0.52914 -2.25112,0.68286 C 145.56828,497.9231 144.78792,497.99997 144,498 H 32 c -0.787931,-3e-5 -1.568295,-0.0769 -2.341087,-0.23065 -0.772793,-0.15372 -1.523165,-0.38132 -2.251118,-0.68286 -0.727953,-0.30155 -1.4195,-0.67118 -2.074642,-1.10892 -0.655138,-0.43774 -1.261284,-0.93518 -1.818436,-1.49234 -0.557154,-0.55716 -1.054605,-1.16333 -1.492355,-1.81848 -0.437754,-0.65512 -0.807392,-1.34668 -1.108919,-2.07465 -0.301529,-0.72793 -0.529152,-1.4783 -0.682867,-2.2511 C 20.076857,487.56824 19.999998,486.7879 20,486 Z"
       style="fill:#000080;fill-opacity:1;fill-rule:nonzero;stroke:none"
       transform="scale(0.97303919)"
       clip-path="url(#clipPath12)" />
    <path
       id="path13"
       d="m 20,530 v -8 c -2e-6,-0.78796 0.07686,-1.56836 0.230576,-2.34113 0.153715,-0.77276 0.381338,-1.52313 0.682867,-2.25109 0.301527,-0.72797 0.671165,-1.4195 1.108919,-2.07465 0.43775,-0.65515 0.935201,-1.26129 1.492355,-1.81842 0.557152,-0.55719 1.163298,-1.05463 1.818438,-1.49237 0.65514,-0.43778 1.346687,-0.8074 2.07464,-1.10895 0.727953,-0.30151 1.478325,-0.52911 2.251118,-0.68283 C 30.431705,510.07684 31.212069,510 32,510 h 112 c 0.78792,0 1.56828,0.0768 2.34106,0.23056 0.77279,0.15372 1.52317,0.38132 2.25112,0.68283 0.72795,0.30155 1.41951,0.67117 2.07466,1.10895 0.65514,0.43774 1.26129,0.93518 1.81843,1.49237 0.55715,0.55713 1.0546,1.16327 1.49234,1.81842 0.43776,0.65515 0.80739,1.34668 1.10892,2.07465 0.30152,0.72796 0.52915,1.47833 0.68288,2.25109 0.15372,0.77277 0.23057,1.55317 0.23059,2.34113 v 8 c -2e-5,0.7879 -0.0769,1.56824 -0.23059,2.341 -0.15373,0.77277 -0.38136,1.52314 -0.68288,2.25116 -0.30153,0.72797 -0.67116,1.4195 -1.10892,2.07465 -0.43774,0.65515 -0.93519,1.26129 -1.49234,1.81842 -0.55714,0.55719 -1.16329,1.05463 -1.81845,1.49231 -0.65513,0.43774 -1.34669,0.80737 -2.07464,1.10895 -0.72795,0.30157 -1.47833,0.52917 -2.25112,0.68286 C 145.56828,541.9231 144.78792,541.99994 144,542 H 32 c -0.787931,-6e-5 -1.568295,-0.0769 -2.341087,-0.23065 -0.772793,-0.15369 -1.523165,-0.38129 -2.251118,-0.68286 -0.727953,-0.30158 -1.4195,-0.67121 -2.074642,-1.10895 -0.655138,-0.43768 -1.261284,-0.93512 -1.818436,-1.49231 -0.557154,-0.55713 -1.054605,-1.16327 -1.492355,-1.81842 -0.437754,-0.65515 -0.807392,-1.34668 -1.108919,-2.07465 -0.301529,-0.72802 -0.529152,-1.47839 -0.682867,-2.25116 C 20.076857,531.56824 19.999998,530.7879 20,530 Z"
       style="fill:#000080;fill-opacity:1;fill-rule:nonzero;stroke:none"
       transform="scale(0.97303919)"
       clip-path="url(#clipPath14)" />
    <path
       id="path15"
       d="m 20,574 v -8 c -2e-6,-0.78796 0.07686,-1.56836 0.230576,-2.34113 0.153715,-0.77282 0.381338,-1.52319 0.682867,-2.25116 0.301527,-0.72796 0.671165,-1.41949 1.108919,-2.07458 0.43775,-0.65509 0.935201,-1.26123 1.492355,-1.81842 0.557152,-0.55719 1.163298,-1.05463 1.818438,-1.49237 0.65514,-0.43775 1.346687,-0.80737 2.07464,-1.10889 0.727953,-0.30151 1.478325,-0.52911 2.251118,-0.68286 C 30.431705,554.07684 31.212069,554 32,554 h 112 c 0.78792,0 1.56828,0.0768 2.34106,0.23059 0.77279,0.15375 1.52317,0.38135 2.25112,0.68286 0.72795,0.30152 1.41951,0.67114 2.07466,1.10889 0.65514,0.43774 1.26129,0.93518 1.81843,1.49237 0.55715,0.55719 1.0546,1.16333 1.49234,1.81842 0.43776,0.65509 0.80739,1.34662 1.10892,2.07458 0.30152,0.72797 0.52915,1.47834 0.68288,2.25116 0.15372,0.77277 0.23057,1.55317 0.23059,2.34113 v 8 c -2e-5,0.7879 -0.0769,1.56824 -0.23059,2.34106 -0.15373,0.77277 -0.38136,1.52308 -0.68288,2.25104 -0.30153,0.72797 -0.67116,1.4195 -1.10892,2.07471 -0.43774,0.65515 -0.93519,1.26129 -1.49234,1.81842 -0.55714,0.55719 -1.16329,1.05463 -1.81845,1.49231 -0.65513,0.43774 -1.34669,0.80737 -2.07464,1.10895 -0.72795,0.30151 -1.47833,0.52911 -2.25112,0.68286 C 145.56828,585.92303 144.78792,585.99994 144,586 H 32 c -0.787931,-6e-5 -1.568295,-0.077 -2.341087,-0.23065 -0.772793,-0.15375 -1.523165,-0.38135 -2.251118,-0.68286 -0.727953,-0.30158 -1.4195,-0.67121 -2.074642,-1.10895 -0.655138,-0.43768 -1.261284,-0.93512 -1.818436,-1.49231 -0.557154,-0.55713 -1.054605,-1.16327 -1.492355,-1.81848 -0.437754,-0.65515 -0.807392,-1.34668 -1.108919,-2.07465 -0.301529,-0.72796 -0.529152,-1.47827 -0.682867,-2.25104 C 20.076857,575.56824 19.999998,574.7879 20,574 Z"
       style="fill:#000080;fill-opacity:1;fill-rule:nonzero;stroke:none"
       transform="scale(0.97303919)"
       clip-path="url(#clipPath16)" />
    <path
       id="path17"
       d="m 20,618 v -8 c -2e-6,-0.7879 0.07686,-1.5683 0.230576,-2.34106 0.153715,-0.77283 0.381338,-1.5232 0.682867,-2.25116 0.301527,-0.72797 0.671165,-1.4195 1.108919,-2.07465 0.43775,-0.65509 0.935201,-1.26123 1.492355,-1.81842 0.557152,-0.55719 1.163298,-1.05463 1.818438,-1.49237 0.65514,-0.43781 1.346687,-0.80744 2.07464,-1.10895 0.727953,-0.30145 1.478325,-0.52911 2.251118,-0.68286 C 30.431705,598.07684 31.212069,598 32,598 h 112 c 0.78792,0 1.56828,0.0768 2.34106,0.23053 0.77279,0.15375 1.52317,0.38141 2.25112,0.68286 0.72795,0.30151 1.41951,0.67114 2.07466,1.10895 0.65514,0.43774 1.26129,0.93518 1.81843,1.49237 0.55715,0.55719 1.0546,1.16333 1.49234,1.81842 0.43776,0.65515 0.80739,1.34668 1.10892,2.07465 0.30152,0.72796 0.52915,1.47833 0.68288,2.25116 0.15372,0.77276 0.23057,1.55316 0.23059,2.34106 v 8 c -2e-5,0.7879 -0.0769,1.56824 -0.23059,2.34106 -0.15373,0.77277 -0.38136,1.52308 -0.68288,2.25104 -0.30153,0.72797 -0.67116,1.4195 -1.10892,2.07471 -0.43774,0.65509 -0.93519,1.26123 -1.49234,1.81842 -0.55714,0.55713 -1.16329,1.05456 -1.81845,1.49237 -0.65513,0.43774 -1.34669,0.80737 -2.07464,1.10889 -0.72795,0.30157 -1.47833,0.52917 -2.25112,0.68292 C 145.56828,629.92316 144.78792,630 144,630 H 32 c -0.787931,0 -1.568295,-0.0768 -2.341087,-0.23059 -0.772793,-0.15375 -1.523165,-0.38135 -2.251118,-0.68292 -0.727953,-0.30152 -1.4195,-0.67115 -2.074642,-1.10895 -0.655138,-0.43775 -1.261284,-0.93518 -1.818436,-1.49231 -0.557154,-0.55719 -1.054605,-1.16333 -1.492355,-1.81848 -0.437754,-0.65515 -0.807392,-1.34668 -1.108919,-2.07465 -0.301529,-0.72796 -0.529152,-1.47827 -0.682867,-2.25104 C 20.076857,619.56824 19.999998,618.7879 20,618 Z"
       style="fill:#000080;fill-opacity:1;fill-rule:nonzero;stroke:none"
       transform="scale(0.97303919)"
       clip-path="url(#clipPath18)" />
    <path
       id="path19"
       d="m 20,662 v -8 c -2e-6,-0.78796 0.07686,-1.56836 0.230576,-2.34119 0.153715,-0.77276 0.381338,-1.52313 0.682867,-2.2511 0.301527,-0.72796 0.671165,-1.41955 1.108919,-2.07464 0.43775,-0.65515 0.935201,-1.26129 1.492355,-1.81842 0.557152,-0.55719 1.163298,-1.05463 1.818438,-1.49237 0.65514,-0.43781 1.346687,-0.80744 2.07464,-1.10895 0.727953,-0.30145 1.478325,-0.52905 2.251118,-0.6828 C 30.431705,642.07684 31.212069,642 32,642 h 112 c 0.78792,0 1.56828,0.0768 2.34106,0.23053 0.77279,0.15375 1.52317,0.38135 2.25112,0.6828 0.72795,0.30151 1.41951,0.67114 2.07466,1.10895 0.65514,0.43774 1.26129,0.93518 1.81843,1.49237 0.55715,0.55713 1.0546,1.16327 1.49234,1.81842 0.43776,0.65509 0.80739,1.34668 1.10892,2.07464 0.30152,0.72797 0.52915,1.47834 0.68288,2.2511 0.15372,0.77283 0.23057,1.55323 0.23059,2.34119 v 8 c -2e-5,0.7879 -0.0769,1.56824 -0.23059,2.34106 -0.15373,0.77277 -0.38136,1.52314 -0.68288,2.2511 -0.30153,0.72797 -0.67116,1.4195 -1.10892,2.07465 -0.43774,0.65509 -0.93519,1.26123 -1.49234,1.81842 -0.55714,0.55713 -1.16329,1.05456 -1.81845,1.49231 -0.65513,0.43774 -1.34669,0.80737 -2.07464,1.10895 -0.72795,0.30151 -1.47833,0.52917 -2.25112,0.68292 C 145.56828,673.92316 144.78792,674 144,674 H 32 c -0.787931,0 -1.568295,-0.0768 -2.341087,-0.23059 -0.772793,-0.15375 -1.523165,-0.38141 -2.251118,-0.68292 -0.727953,-0.30158 -1.4195,-0.67121 -2.074642,-1.10895 -0.655138,-0.43775 -1.261284,-0.93518 -1.818436,-1.49231 -0.557154,-0.55719 -1.054605,-1.16333 -1.492355,-1.81842 -0.437754,-0.65515 -0.807392,-1.34668 -1.108919,-2.07465 -0.301529,-0.72796 -0.529152,-1.47833 -0.682867,-2.2511 C 20.076857,663.56824 19.999998,662.7879 20,662 Z"
       style="fill:#000080;fill-opacity:1;fill-rule:nonzero;stroke:none"
       transform="scale(0.97303919)"
       clip-path="url(#clipPath20)" />
    <path
       id="path21"
       d="m 20,718 h 130 v 2 H 20 Z"
       style="fill:#000080;fill-opacity:1;fill-rule:nonzero;stroke:none"
       transform="scale(0.97303919)"
       clip-path="url(#clipPath22)" />
    <path
       id="path23"
       d="m 20,752 v -8 c -2e-6,-0.78796 0.07686,-1.56836 0.230576,-2.34119 0.153715,-0.77276 0.381338,-1.52313 0.682867,-2.2511 0.301527,-0.72796 0.671165,-1.41949 1.108919,-2.07464 0.43775,-0.65515 0.935201,-1.26129 1.492355,-1.81836 0.557152,-0.55719 1.163298,-1.05469 1.818438,-1.49243 0.65514,-0.43775 1.346687,-0.80738 2.07464,-1.10889 0.727953,-0.30151 1.478325,-0.52911 2.251118,-0.6828 C 30.431705,732.07684 31.212069,732 32,732 h 112 c 0.78792,0 1.56828,0.0768 2.34106,0.23053 0.77279,0.15369 1.52317,0.38129 2.25112,0.6828 0.72795,0.30157 1.41951,0.6712 2.07466,1.10895 0.65514,0.43774 1.26129,0.93524 1.81843,1.49243 0.55715,0.55707 1.0546,1.16321 1.49234,1.81836 0.43776,0.65515 0.80739,1.34668 1.10892,2.07464 0.30152,0.72797 0.52915,1.47834 0.68288,2.2511 0.15372,0.77283 0.23057,1.55323 0.23059,2.34119 v 8 c -2e-5,0.7879 -0.0769,1.56824 -0.23059,2.341 -0.15373,0.77277 -0.38136,1.52314 -0.68288,2.2511 -0.30153,0.72797 -0.67116,1.4195 -1.10892,2.07459 -0.43774,0.65515 -0.93519,1.26129 -1.49234,1.81848 -0.55714,0.55713 -1.16329,1.05456 -1.81845,1.49231 -0.65513,0.4378 -1.34669,0.80743 -2.07464,1.10895 -0.72795,0.30151 -1.47833,0.52911 -2.25112,0.68286 C 145.56828,763.92303 144.78792,763.99994 144,764 H 32 c -0.787931,-6e-5 -1.568295,-0.077 -2.341087,-0.23071 -0.772793,-0.15375 -1.523165,-0.38135 -2.251118,-0.68286 -0.727953,-0.30152 -1.4195,-0.67115 -2.074642,-1.10895 -0.655138,-0.43775 -1.261284,-0.93518 -1.818436,-1.49231 -0.557154,-0.55719 -1.054605,-1.16333 -1.492355,-1.81848 -0.437754,-0.65509 -0.807392,-1.34662 -1.108919,-2.07459 -0.301529,-0.72796 -0.529152,-1.47833 -0.682867,-2.2511 C 20.076857,753.56824 19.999998,752.7879 20,752 Z"
       style="fill:#000080;fill-opacity:1;fill-rule:nonzero;stroke:none"
       transform="scale(0.97303919)"
       clip-path="url(#clipPath24)" />
    <path
       id="path25"
       d="m 20,796 v -8 c -2e-6,-0.78802 0.07686,-1.56842 0.230576,-2.34119 0.153715,-0.77282 0.381338,-1.52319 0.682867,-2.25116 0.301527,-0.72796 0.671165,-1.41949 1.108919,-2.07464 0.43775,-0.65509 0.935201,-1.26123 1.492355,-1.81836 0.557152,-0.55719 1.163298,-1.05463 1.818438,-1.49237 0.65514,-0.43775 1.346687,-0.80738 2.07464,-1.10889 0.727953,-0.30151 1.478325,-0.52911 2.251118,-0.6828 C 30.431705,776.07684 31.212069,776 32,776 h 112 c 0.78792,0 1.56828,0.0768 2.34106,0.23053 0.77279,0.15375 1.52317,0.38135 2.25112,0.68286 0.72795,0.30151 1.41951,0.67114 2.07466,1.10889 0.65514,0.43774 1.26129,0.93518 1.81843,1.49237 0.55715,0.55713 1.0546,1.16327 1.49234,1.81842 0.43776,0.65509 0.80739,1.34662 1.10892,2.07458 0.30152,0.72797 0.52915,1.47834 0.68288,2.25116 0.15372,0.77277 0.23057,1.55317 0.23059,2.34119 v 8 c -2e-5,0.7879 -0.0769,1.56824 -0.23059,2.341 -0.15373,0.77277 -0.38136,1.52314 -0.68288,2.2511 -0.30153,0.72797 -0.67116,1.4195 -1.10892,2.07471 -0.43774,0.65515 -0.93519,1.26129 -1.49234,1.81842 -0.55714,0.55713 -1.16329,1.05456 -1.81845,1.49231 -0.65513,0.43774 -1.34669,0.80737 -2.07464,1.10895 -0.72795,0.30157 -1.47833,0.52917 -2.25112,0.68286 C 145.56828,807.9231 144.78792,808 144,808 H 32 c -0.787931,0 -1.568295,-0.0769 -2.341087,-0.23065 -0.772793,-0.15369 -1.523165,-0.38129 -2.251118,-0.68286 -0.727953,-0.30158 -1.4195,-0.67121 -2.074642,-1.10895 -0.655138,-0.43775 -1.261284,-0.93518 -1.818436,-1.49231 -0.557154,-0.55713 -1.054605,-1.16327 -1.492355,-1.81848 -0.437754,-0.65515 -0.807392,-1.34668 -1.108919,-2.07465 -0.301529,-0.72796 -0.529152,-1.47833 -0.682867,-2.2511 C 20.076857,797.56824 19.999998,796.7879 20,796 Z"
       style="fill:#000080;fill-opacity:1;fill-rule:nonzero;stroke:none"
       transform="scale(0.97303919)"
       clip-path="url(#clipPath26)" />
    <path
       id="path27"
       d="m 20,852 h 130 v 2 H 20 Z"
       style="fill:#000080;fill-opacity:1;fill-rule:nonzero;stroke:none"
       transform="scale(0.97303919)"
       clip-path="url(#clipPath28)" />
    <path
       id="path29"
       d="m 20,886 v -8 c -2e-6,-0.78796 0.07686,-1.56836 0.230576,-2.34113 0.153715,-0.77282 0.381338,-1.52325 0.682867,-2.25122 0.301527,-0.72796 0.671165,-1.41949 1.108919,-2.07458 0.43775,-0.65515 0.935201,-1.26129 1.492355,-1.81842 0.557152,-0.55719 1.163298,-1.05463 1.818438,-1.49243 0.65514,-0.43769 1.346687,-0.80732 2.07464,-1.10883 0.727953,-0.30151 1.478325,-0.52911 2.251118,-0.68286 C 30.431705,866.07684 31.212069,866 32,866 h 112 c 0.78792,0 1.56828,0.0768 2.34106,0.23053 0.77279,0.15375 1.52317,0.38135 2.25112,0.68286 0.72795,0.30151 1.41951,0.67114 2.07466,1.10883 0.65514,0.4378 1.26129,0.93524 1.81843,1.49243 0.55715,0.55713 1.0546,1.16327 1.49234,1.81842 0.43776,0.65509 0.80739,1.34662 1.10892,2.07458 0.30152,0.72797 0.52915,1.4784 0.68288,2.25122 0.15372,0.77277 0.23057,1.55317 0.23059,2.34113 v 8 c -2e-5,0.7879 -0.0769,1.56824 -0.23059,2.341 -0.15373,0.77277 -0.38136,1.52314 -0.68288,2.2511 -0.30153,0.72797 -0.67116,1.4195 -1.10892,2.07465 -0.43774,0.65509 -0.93519,1.26129 -1.49234,1.81848 -0.55714,0.55713 -1.16329,1.05456 -1.81845,1.49237 -0.65513,0.43768 -1.34669,0.80731 -2.07464,1.10889 -0.72795,0.30157 -1.47833,0.52917 -2.25112,0.68292 C 145.56828,897.9231 144.78792,897.99994 144,898 H 32 c -0.787931,-6e-5 -1.568295,-0.0769 -2.341087,-0.23065 -0.772793,-0.15369 -1.523165,-0.38129 -2.251118,-0.68286 -0.727953,-0.30158 -1.4195,-0.67121 -2.074642,-1.10889 -0.655138,-0.43781 -1.261284,-0.93524 -1.818436,-1.49237 -0.557154,-0.55719 -1.054605,-1.16339 -1.492355,-1.81848 -0.437754,-0.65515 -0.807392,-1.34668 -1.108919,-2.07465 -0.301529,-0.72796 -0.529152,-1.47833 -0.682867,-2.2511 C 20.076857,887.56824 19.999998,886.7879 20,886 Z"
       style="fill:#000080;fill-opacity:1;fill-rule:nonzero;stroke:none"
       transform="scale(0.97303919)"
       clip-path="url(#clipPath30)" />
    <path
       id="path31"
       d="m 20,930 v -8 c -2e-6,-0.78796 0.07686,-1.56836 0.230576,-2.34119 0.153715,-0.77282 0.381338,-1.52319 0.682867,-2.25116 0.301527,-0.72796 0.671165,-1.41949 1.108919,-2.07458 0.43775,-0.65515 0.935201,-1.26129 1.492355,-1.81842 0.557152,-0.55713 1.163298,-1.05457 1.818438,-1.49237 0.65514,-0.43775 1.346687,-0.80738 2.07464,-1.10889 0.727953,-0.30151 1.478325,-0.52911 2.251118,-0.68286 C 30.431705,910.07684 31.212069,910 32,910 h 112 c 0.78792,0 1.56828,0.0768 2.34106,0.23053 0.77279,0.15375 1.52317,0.38135 2.25112,0.68286 0.72795,0.30151 1.41951,0.67114 2.07466,1.10889 0.65514,0.4378 1.26129,0.93524 1.81843,1.49237 0.55715,0.55713 1.0546,1.16327 1.49234,1.81842 0.43776,0.65509 0.80739,1.34662 1.10892,2.07458 0.30152,0.72797 0.52915,1.47834 0.68288,2.2511 0.15372,0.77289 0.23057,1.55329 0.23059,2.34125 v 8 c -2e-5,0.7879 -0.0769,1.56824 -0.23059,2.341 -0.15373,0.77277 -0.38136,1.52314 -0.68288,2.2511 -0.30153,0.72797 -0.67116,1.4195 -1.10892,2.07465 -0.43774,0.65515 -0.93519,1.26129 -1.49234,1.81848 -0.55714,0.55713 -1.16329,1.05456 -1.81845,1.49237 -0.65513,0.43768 -1.34669,0.80731 -2.07464,1.10883 -0.72795,0.30151 -1.47833,0.52917 -2.25112,0.68292 C 145.56828,941.9231 144.78792,941.99994 144,942 H 32 c -0.787931,-6e-5 -1.568295,-0.0769 -2.341087,-0.23065 -0.772793,-0.15375 -1.523165,-0.38141 -2.251118,-0.68292 -0.727953,-0.30152 -1.4195,-0.67115 -2.074642,-1.10883 -0.655138,-0.43781 -1.261284,-0.93524 -1.818436,-1.49237 -0.557154,-0.55719 -1.054605,-1.16333 -1.492355,-1.81842 -0.437754,-0.65521 -0.807392,-1.34674 -1.108919,-2.07471 -0.301529,-0.72796 -0.529152,-1.47833 -0.682867,-2.2511 C 20.076857,931.56824 19.999998,930.7879 20,930 Z"
       style="fill:#000080;fill-opacity:1;fill-rule:nonzero;stroke:none"
       transform="scale(0.97303919)"
       clip-path="url(#clipPath32)" />
    <path
       id="path33"
       d="m 62,262 c -4e-6,1.05057 -0.102482,2.09103 -0.307438,3.12146 -0.20496,1.03036 -0.508457,2.03085 -0.910496,3.00146 -0.402038,0.97062 -0.894889,1.89264 -1.478557,2.76615 -0.583668,0.87353 -1.246937,1.68173 -1.989804,2.42462 -0.74287,0.74286 -1.551067,1.40613 -2.424587,1.98981 -0.873524,0.58365 -1.795585,1.0765 -2.766189,1.47854 -0.970604,0.40204 -1.9711,0.70554 -3.001484,0.9105 C 48.091053,277.89752 47.050571,278 46,278 c -1.050579,0 -2.091061,-0.10248 -3.121449,-0.30746 -1.030391,-0.20496 -2.030887,-0.50846 -3.001491,-0.9105 -0.970604,-0.40204 -1.892666,-0.89489 -2.766186,-1.47857 -0.873524,-0.58365 -1.681717,-1.24692 -2.424583,-1.98978 -0.742871,-0.74289 -1.40614,-1.55109 -1.989807,-2.42462 -0.583668,-0.87351 -1.076521,-1.79553 -1.47856,-2.76615 -0.402038,-0.97061 -0.705536,-1.9711 -0.910492,-3.00146 C 30.102474,264.09103 29.999998,263.05057 30,262 c -2e-6,-1.05057 0.102474,-2.09106 0.307432,-3.12146 0.204956,-1.0304 0.508454,-2.03088 0.910492,-3.0015 0.402039,-0.97061 0.894892,-1.89266 1.47856,-2.76618 0.583667,-0.87352 1.246936,-1.68172 1.989807,-2.42458 0.742866,-0.74287 1.551059,-1.40616 2.424583,-1.98982 0.87352,-0.58367 1.795582,-1.07653 2.766186,-1.47856 0.970604,-0.40203 1.9711,-0.70553 3.001488,-0.91047 C 43.908939,246.10248 44.949421,246 46,246 c 1.050571,0 2.091053,0.10248 3.121441,0.30743 1.030388,0.20494 2.030884,0.50844 3.001488,0.91047 0.970604,0.40203 1.892665,0.89489 2.766189,1.47856 0.87352,0.58366 1.681717,1.24695 2.424587,1.98982 0.742867,0.74286 1.406132,1.55106 1.9898,2.42458 0.583668,0.87352 1.076519,1.79557 1.478558,2.76618 0.402038,0.97062 0.705535,1.9711 0.910495,3.0015 0.20496,1.0304 0.307438,2.07089 0.307442,3.12146 z"
       style="fill:#000080;fill-opacity:1;fill-rule:nonzero;stroke:none"
       transform="scale(0.97303919)"
       clip-path="url(#clipPath34)" />
    <path
       id="path35"
       d="m 2.0083448,-10.502985 c -0.3211587,0.02409 -0.4937815,0.188681 -0.5138539,0.497796 v 0.6904914 l 5.4115241,4.448048 c 0.3291876,0.248898 0.6945057,0.3693325 1.0919395,0.3693325 0.4175064,0 0.7908533,-0.1204345 1.1240555,-0.3693325 l 5.379408,-4.448048 v -0.6904914 c -0.02409,-0.309115 -0.188681,-0.473709 -0.497796,-0.497796 z m -0.5138539,3.1312975 v 5.3633503 -5.3633503 5.3633503 c 0.020072,0.3211587 0.1926952,0.4937815 0.5138539,0.5138539 H 14.003622 c 0.309115,-0.020072 0.473709,-0.1926952 0.497796,-0.5138539 v -5.3633503 l -4.448048,3.6612092 c -0.6222448,0.4737091 -1.3087215,0.7065491 -2.0554155,0.7065491 -0.7507084,0 -1.4371851,-0.23284 -2.0554156,-0.7065491 z M 0.00110296,-10.005189 c 0.02007242,-0.553999 0.21678212,-1.019679 0.59414359,-1.39704 0.37334699,-0.373347 0.84304155,-0.570057 1.41309825,-0.594144 H 14.003622 c 0.553999,0.02409 1.019679,0.220797 1.397041,0.594144 0.373347,0.377361 0.570056,0.843041 0.594143,1.39704 v 7.9968518 c -0.02409,0.5700567 -0.220796,1.03975128 -0.594143,1.41309827 -0.377362,0.37736147 -0.843042,0.57407117 -1.397041,0.59414359 H 2.0083448 C 1.4382881,-0.02116776 0.96859354,-0.21787746 0.59524655,-0.59523893 0.21788508,-0.96858592 0.02117538,-1.4382805 0.00110296,-2.0083372 Z m 0,0"
       style="fill:#ffffff;fill-opacity:1;fill-rule:nonzero;stroke:none"
       aria-label="✉"
       transform="matrix(0.97303919,0,0,0.97303919,36.975489,260.7745)"
       clip-path="url(#clipPath36)" />
    <text
       id="text36"
       xml:space="preserve"
       transform="matrix(0.97303919,0,0,0.97303919,29.191176,291.91176)"
       clip-path="url(#clipPath37)"><tspan
         style="font-variant:normal;font-weight:normal;font-size:16px;font-family:Arial;writing-mode:lr-tb;fill:#000000;fill-opacity:1;fill-rule:nonzero;stroke:none"
         x="0 8.8984375 17.796875 25.796875 34.695312 43.59375 52.492188 68.734375 77.632812 90.960938 99.859375 103.41406 106.96875 111.41406 119.41406 128.3125"
         y="0"
         sodipodi:role="line"
         id="tspan36">qbc543@gmail.com</tspan></text>
    <path
       id="path38"
       d="m 62,356 c -4e-6,1.05057 -0.102482,2.09106 -0.307438,3.12143 -0.20496,1.03036 -0.508457,2.03085 -0.910496,3.00146 -0.402038,0.97059 -0.894889,1.89264 -1.478557,2.76615 -0.583668,0.8735 -1.246937,1.68173 -1.989804,2.42462 -0.74287,0.74286 -1.551067,1.40613 -2.424587,1.98981 -0.873524,0.58365 -1.795585,1.07647 -2.766189,1.47854 -0.970604,0.40207 -1.9711,0.70557 -3.001484,0.91053 C 48.091053,371.89752 47.050571,372 46,372 c -1.050579,0 -2.091061,-0.10248 -3.121449,-0.30746 -1.030391,-0.20496 -2.030887,-0.50846 -3.001491,-0.91053 -0.970604,-0.40207 -1.892666,-0.89489 -2.766186,-1.47854 -0.873524,-0.58368 -1.681717,-1.24695 -2.424583,-1.98981 -0.742871,-0.74289 -1.40614,-1.55112 -1.989807,-2.42462 -0.583668,-0.87354 -1.076521,-1.7956 -1.47856,-2.76618 -0.402038,-0.97061 -0.705536,-1.9711 -0.910492,-3.00146 C 30.102474,358.09103 29.999998,357.05057 30,356 c -2e-6,-1.0506 0.102474,-2.09109 0.307432,-3.12146 0.204956,-1.0304 0.508454,-2.03088 0.910492,-3.0015 0.402039,-0.97061 0.894892,-1.89266 1.47856,-2.7662 0.583667,-0.8735 1.246936,-1.6817 1.989807,-2.42456 0.742866,-0.74289 1.551059,-1.40616 2.424583,-1.98984 0.87352,-0.58365 1.795582,-1.07651 2.766186,-1.47854 0.970604,-0.40201 1.9711,-0.70551 3.001488,-0.9105 C 43.908939,340.10248 44.949421,340.00003 46,340 c 1.050571,3e-5 2.091053,0.10248 3.121441,0.3074 1.030388,0.20499 2.030884,0.50849 3.001488,0.9105 0.970604,0.40203 1.892665,0.89489 2.766189,1.47854 0.87352,0.58368 1.681717,1.24695 2.424587,1.98984 0.742867,0.74286 1.406132,1.55106 1.9898,2.42456 0.583668,0.87354 1.076519,1.79559 1.478558,2.7662 0.402038,0.97062 0.705535,1.9711 0.910495,3.0015 C 61.897518,353.90891 61.999996,354.9494 62,356 Z"
       style="fill:#000080;fill-opacity:1;fill-rule:nonzero;stroke:none"
       transform="scale(0.97303919)"
       clip-path="url(#clipPath39)" />
    <path
       id="path40"
       d="m 5.1557001,-13.217639 c -0.1284635,-0.309116 -0.3291877,-0.529912 -0.5941436,-0.658376 -0.2890429,-0.11642 -0.5901291,-0.148536 -0.8992444,-0.09635 l -2.76196478,0.754723 c -0.55801324,0.216782 -0.85909952,0.622245 -0.89924436,1.220403 0.02007242,2.6013852 0.65837533,4.9578872 1.91089424,7.0654911 1.2404755,2.099575 2.9145152,3.7736147 5.0261336,5.02613364 C 9.0336913,1.3469077 11.390193,1.9811961 14.003622,2.005283 14.60178,1.9611237 15.003229,1.6560229 15.207967,1.0899807 l 0.754723,-2.7459069 c 0.06423,-0.3091152 0.03212,-0.614216 -0.09635,-0.9153023 -0.120435,-0.2649559 -0.337217,-0.4576511 -0.658376,-0.5780856 L 12.221191,-4.401833 c -0.570056,-0.1926953 -1.051794,-0.068246 -1.445214,0.3693325 L 9.5234584,-2.5069967 C 8.4194753,-3.0208506 7.4359268,-3.7033129 6.5687983,-4.5624124 5.7096988,-5.4375698 5.0192076,-6.4291473 4.4973247,-7.5331303 l 1.5255039,-1.252519 C 6.4604073,-9.1790687 6.5888708,-9.6567922 6.408219,-10.214805 Z m 0,0"
       style="fill:#ffffff;fill-opacity:1;fill-rule:nonzero;stroke:none"
       aria-label=""
       transform="matrix(0.97303919,0,0,0.97303919,36.975489,352.24019)"
       clip-path="url(#clipPath41)" />
    <text
       id="text41"
       xml:space="preserve"
       transform="matrix(0.97303919,0,0,0.97303919,29.191176,383.37744)"
       clip-path="url(#clipPath42)"><tspan
         style="font-variant:normal;font-weight:normal;font-size:16px;font-family:Arial;writing-mode:lr-tb;fill:#000000;fill-opacity:1;fill-rule:nonzero;stroke:none"
         x="0 8.8984375 17.796875 26.695312 35.59375 44.492188 53.390625 62.289062 71.1875 80.085938"
         y="0"
         sodipodi:role="line"
         id="tspan41">1234567891</tspan></text>
    <text
       id="text42"
       xml:space="preserve"
       transform="matrix(0.97303919,0,0,0.97303919,19.460784,433.00244)"
       clip-path="url(#clipPath43)"><tspan
         style="font-variant:normal;font-weight:700;font-size:18.71px;font-family:Arial;writing-mode:lr-tb;fill:#000080;fill-opacity:1;fill-rule:nonzero;stroke:none"
         x="0 12.479416 22.885025 28.083252 33.281479 38.479706"
         y="0"
         sodipodi:role="line"
         id="tspan42">Skills</tspan></text>
    <text
       id="text43"
       xml:space="preserve"
       transform="matrix(0.97303919,0,0,0.97303919,27.245097,473.87009)"
       clip-path="url(#clipPath44)"><tspan
         style="font-variant:normal;font-weight:normal;font-size:14px;font-family:Arial;writing-mode:lr-tb;fill:#ffffff;fill-opacity:1;fill-rule:nonzero;stroke:none"
         x="0 7.7861328 10.896484 14.786133 22.572266"
         y="0"
         sodipodi:role="line"
         id="tspan43">ui ux</tspan></text>
    <text
       id="text44"
       xml:space="preserve"
       transform="matrix(0.97303919,0,0,0.97303919,27.245097,516.68381)"
       clip-path="url(#clipPath45)"><tspan
         style="font-variant:normal;font-weight:normal;font-size:14px;font-family:Arial;writing-mode:lr-tb;fill:#ffffff;fill-opacity:1;fill-rule:nonzero;stroke:none"
         x="0 7.7861328 15.572266 22.572266 25.682617 33.46875 41.254883 49.041016"
         y="0"
         sodipodi:role="line"
         id="tspan44">designer</tspan></text>
    <text
       id="text45"
       xml:space="preserve"
       transform="matrix(0.97303919,0,0,0.97303919,27.245097,559.49754)"
       clip-path="url(#clipPath46)"><tspan
         style="font-variant:normal;font-weight:normal;font-size:14px;font-family:Arial;writing-mode:lr-tb;fill:#ffffff;fill-opacity:1;fill-rule:nonzero;stroke:none"
         x="0 7.7861328 15.572266 22.572266 30.358398 33.46875 41.254883 49.041016 56.827148"
         y="0"
         sodipodi:role="line"
         id="tspan45">developer</tspan></text>
    <text
       id="text46"
       xml:space="preserve"
       transform="matrix(0.97303919,0,0,0.97303919,27.245097,602.31126)"
       clip-path="url(#clipPath47)"><tspan
         style="font-variant:normal;font-weight:normal;font-size:14px;font-family:Arial;writing-mode:lr-tb;fill:#ffffff;fill-opacity:1;fill-rule:nonzero;stroke:none"
         x="0 11.662109 19.448242 27.234375 35.020508 42.806641 50.592773"
         y="0"
         sodipodi:role="line"
         id="tspan46">manager</tspan></text>
    <text
       id="text47"
       xml:space="preserve"
       transform="matrix(0.97303919,0,0,0.97303919,27.245097,645.12498)"
       clip-path="url(#clipPath48)"><tspan
         style="font-variant:normal;font-weight:normal;font-size:14px;font-family:Arial;writing-mode:lr-tb;fill:#ffffff;fill-opacity:1;fill-rule:nonzero;stroke:none"
         x="0 11.662109 19.448242 24.110352 31.110352 38.896484 42.786133 50.572266"
         y="0"
         sodipodi:role="line"
         id="tspan47">marketor</tspan></text>
    <text
       id="text48"
       xml:space="preserve"
       transform="matrix(0.97303919,0,0,0.97303919,19.460784,691.83087)"
       clip-path="url(#clipPath49)"><tspan
         style="font-variant:normal;font-weight:700;font-size:18.71px;font-family:Arial;writing-mode:lr-tb;fill:#000080;fill-opacity:1;fill-rule:nonzero;stroke:none"
         x="0 11.428802 21.834412 33.263214 44.692017 56.120819 66.526428 77.955231 88.36084"
         y="0"
         sodipodi:role="line"
         id="tspan48">Languages</tspan></text>
    <text
       id="text49"
       xml:space="preserve"
       transform="matrix(0.97303919,0,0,0.97303919,27.245097,732.69851)"
       clip-path="url(#clipPath50)"><tspan
         style="font-variant:normal;font-weight:normal;font-size:14px;font-family:Arial;writing-mode:lr-tb;fill:#ffffff;fill-opacity:1;fill-rule:nonzero;stroke:none"
         x="0 9.3378906 17.124023 24.910156 28.020508 31.130859 38.130859"
         y="0"
         sodipodi:role="line"
         id="tspan49">English</tspan></text>
    <text
       id="text50"
       xml:space="preserve"
       transform="matrix(0.97303919,0,0,0.97303919,27.245097,775.51224)"
       clip-path="url(#clipPath51)"><tspan
         style="font-variant:normal;font-weight:normal;font-size:14px;font-family:Arial;writing-mode:lr-tb;fill:#ffffff;fill-opacity:1;fill-rule:nonzero;stroke:none"
         x="0 7.7861328 12.448242 20.234375"
         y="0"
         sodipodi:role="line"
         id="tspan50">urdu</tspan></text>
    <text
       id="text51"
       xml:space="preserve"
       transform="matrix(0.97303919,0,0,0.97303919,19.460784,822.21812)"
       clip-path="url(#clipPath52)"><tspan
         style="font-variant:normal;font-weight:700;font-size:18.71px;font-family:Arial;writing-mode:lr-tb;fill:#000080;fill-opacity:1;fill-rule:nonzero;stroke:none"
         x="0 13.511749 24.940552 36.369354 47.798157 52.996384 63.401993"
         y="0"
         sodipodi:role="line"
         id="tspan51">Hobbies</tspan></text>
    <text
       id="text52"
       xml:space="preserve"
       transform="matrix(0.97303919,0,0,0.97303919,27.245097,863.08576)"
       clip-path="url(#clipPath53)"><tspan
         style="font-variant:normal;font-weight:normal;font-size:14px;font-family:Arial;writing-mode:lr-tb;fill:#ffffff;fill-opacity:1;fill-rule:nonzero;stroke:none"
         x="0 7.7861328 15.572266 23.358398 30.358398 34.248047 38.910156 46.696289 54.482422 62.268555 65.378906 73.165039"
         y="0"
         sodipodi:role="line"
         id="tspan52">book reading</tspan></text>
    <text
       id="text53"
       xml:space="preserve"
       transform="matrix(0.97303919,0,0,0.97303919,27.245097,905.89949)"
       clip-path="url(#clipPath54)"><tspan
         style="font-variant:normal;font-weight:normal;font-size:14px;font-family:Arial;writing-mode:lr-tb;fill:#ffffff;fill-opacity:1;fill-rule:nonzero;stroke:none"
         x="0 7.7861328 15.572266 23.358398 30.358398 34.248047 44.358398 49.020508 52.130859 56.020508 59.910156 63.020508 70.806641"
         y="0"
         sodipodi:role="line"
         id="tspan53">book writting</tspan></text>
    <path
       id="path55"
       d="m 272,276 h 450 v 2 H 272 Z"
       style="fill:#000080;fill-opacity:1;fill-rule:nonzero;stroke:none"
       transform="scale(0.97303919)"
       clip-path="url(#clipPath56)" />
    <path
       id="path57"
       d="m 272,500 h 450 v 2 H 272 Z"
       style="fill:#000080;fill-opacity:1;fill-rule:nonzero;stroke:none"
       transform="scale(0.97303919)"
       clip-path="url(#clipPath58)" />
    <path
       id="path59"
       d="m 272,908 h 450 v 2 H 272 Z"
       style="fill:#000080;fill-opacity:1;fill-rule:nonzero;stroke:none"
       transform="scale(0.97303919)"
       clip-path="url(#clipPath60)" />
    <text
       id="text60"
       xml:space="preserve"
       transform="matrix(0.97303919,0,0,0.97303919,283.77776,261.74754)"
       clip-path="url(#clipPath61)"><tspan
         style="font-variant:normal;font-weight:700;font-size:18.71px;font-family:Arial;writing-mode:lr-tb;fill:#000080;fill-opacity:1;fill-rule:nonzero;stroke:none"
         x="0 12.479416 23.908218 31.189392 37.419968 43.650543 55.079346 60.277573 65.4758"
         y="0"
         sodipodi:role="line"
         id="tspan60">Portfolio</tspan></text>
    <text
       id="text61"
       xml:space="preserve"
       transform="matrix(0.97303919,0,0,0.97303919,288.64296,295.80391)"
       clip-path="url(#clipPath62)"><tspan
         style="font-variant:normal;font-weight:700;font-size:16px;font-family:Arial;writing-mode:lr-tb;fill:#000080;fill-opacity:1;fill-rule:nonzero;stroke:none"
         x="0 9.7734375 18.671875 28.445312 37.34375 47.117188 56.015625"
         y="0"
         sodipodi:role="line"
         id="tspan61">behance</tspan></text>
    <text
       id="text62"
       xml:space="preserve"
       transform="matrix(0.97303919,0,0,0.97303919,288.64296,322.07597)"
       clip-path="url(#clipPath63)"><tspan
         style="font-variant:normal;font-weight:normal;font-size:14px;font-family:Arial;writing-mode:lr-tb;fill:#000000;fill-opacity:1;fill-rule:nonzero;stroke:none"
         x="0 10.110352 19.448242 23.337891 31.124023 38.910156 46.696289 54.482422 62.268555 69.268555 77.054688 80.944336 88.730469 96.516602"
         y="0"
         sodipodi:role="line"
         id="tspan62">ww.behance.net</tspan></text>
    <text
       id="text63"
       xml:space="preserve"
       transform="matrix(0.97303919,0,0,0.97303919,288.64296,354.18627)"
       clip-path="url(#clipPath64)"><tspan
         style="font-variant:normal;font-weight:700;font-size:16px;font-family:Arial;writing-mode:lr-tb;fill:#000080;fill-opacity:1;fill-rule:nonzero;stroke:none"
         x="0 9.7734375 14.21875 19.546875 29.320312 39.09375"
         y="0"
         sodipodi:role="line"
         id="tspan63">github</tspan></text>
    <text
       id="text64"
       xml:space="preserve"
       transform="matrix(0.97303919,0,0,0.97303919,288.64296,380.45832)"
       clip-path="url(#clipPath65)"><tspan
         style="font-variant:normal;font-weight:normal;font-size:14px;font-family:Arial;writing-mode:lr-tb;fill:#000000;fill-opacity:1;fill-rule:nonzero;stroke:none"
         x="0 10.110352 20.220703 29.558594 33.448242 41.234375 44.344727 48.234375 56.020508 63.806641 71.592773 75.482422 82.482422 90.268555"
         y="0"
         sodipodi:role="line"
         id="tspan64">www.github.com</tspan></text>
    <text
       id="text65"
       xml:space="preserve"
       transform="matrix(0.97303919,0,0,0.97303919,288.64296,412.56862)"
       clip-path="url(#clipPath66)"><tspan
         style="font-variant:normal;font-weight:700;font-size:16px;font-family:Arial;writing-mode:lr-tb;fill:#000080;fill-opacity:1;fill-rule:nonzero;stroke:none"
         x="0 4.4453125 8.890625 18.664062 27.5625 36.460938 46.234375 50.679688"
         y="0"
         sodipodi:role="line"
         id="tspan65">linkedin</tspan></text>
    <text
       id="text66"
       xml:space="preserve"
       transform="matrix(0.97303919,0,0,0.97303919,288.64296,438.84068)"
       clip-path="url(#clipPath67)"><tspan
         style="font-variant:normal;font-weight:normal;font-size:14px;font-family:Arial;writing-mode:lr-tb;fill:#000000;fill-opacity:1;fill-rule:nonzero;stroke:none"
         x="0 10.110352 20.220703 29.558594 33.448242 36.558594 39.668945 47.455078 54.455078 62.241211 70.027344 73.137695 80.923828 84.813477 91.813477 99.599609"
         y="0"
         sodipodi:role="line"
         id="tspan66">www.linkedin.com</tspan></text>
    <text
       id="text67"
       xml:space="preserve"
       transform="matrix(0.97303919,0,0,0.97303919,283.77776,479.70832)"
       clip-path="url(#clipPath68)"><tspan
         style="font-variant:normal;font-weight:700;font-size:18.71px;font-family:Arial;writing-mode:lr-tb;fill:#000080;fill-opacity:1;fill-rule:nonzero;stroke:none"
         x="0 12.479416 22.885025 34.313828 44.719437 52.00061 57.198837 67.604446 79.033249 89.438858"
         y="0"
         sodipodi:role="line"
         id="tspan67">Experience</tspan></text>
    <text
       id="text68"
       xml:space="preserve"
       transform="matrix(0.97303919,0,0,0.97303919,288.64296,513.76469)"
       clip-path="url(#clipPath69)"><tspan
         style="font-variant:normal;font-weight:700;font-size:16px;font-family:Arial;writing-mode:lr-tb;fill:#000080;fill-opacity:1;fill-rule:nonzero;stroke:none"
         x="0 10.671875 19.570312 28.46875 37.367188"
         y="0"
         sodipodi:role="line"
         id="tspan68">Xeven</tspan></text>
    <path
       id="path70"
       d="m 301,557.5 c -3e-5,0.33148 -0.0635,0.65039 -0.19037,0.95667 -0.12686,0.30633 -0.30749,0.57666 -0.5419,0.81109 -0.23444,0.23438 -0.50479,0.41498 -0.81106,0.54187 -0.30628,0.12689 -0.62516,0.19031 -0.95667,0.19037 -0.33154,-6e-5 -0.65045,-0.0635 -0.95673,-0.19037 -0.3063,-0.12689 -0.57666,-0.30749 -0.81106,-0.54187 -0.23441,-0.23443 -0.41507,-0.50476 -0.54196,-0.81109 -0.12686,-0.30628 -0.19028,-0.62519 -0.19025,-0.95667 -3e-5,-0.3316 0.0634,-0.65051 0.19025,-0.95679 0.12689,-0.30633 0.30755,-0.57666 0.54196,-0.81103 0.2344,-0.23444 0.50476,-0.41504 0.81106,-0.54193 C 297.84955,555.06342 298.16846,555 298.5,555 c 0.33151,0 0.65039,0.0634 0.95667,0.19025 0.30627,0.12689 0.57662,0.30749 0.81106,0.54193 0.23441,0.23437 0.41504,0.5047 0.5419,0.81103 0.12689,0.30628 0.19034,0.62519 0.19037,0.95679 z"
       style="fill:#000000;fill-opacity:1;fill-rule:nonzero;stroke:none"
       transform="scale(0.97303919)"
       clip-path="url(#clipPath71)" />
    <text
       id="text71"
       xml:space="preserve"
       transform="matrix(0.97303919,0,0,0.97303919,303.23855,546.84803)"
       clip-path="url(#clipPath72)"><tspan
         style="font-variant:normal;font-weight:normal;font-size:16px;font-family:Arial;writing-mode:lr-tb;fill:#000000;fill-opacity:1;fill-rule:nonzero;stroke:none"
         x="0 8.8984375 17.796875 23.125 32.023438 45.351562 49.796875 53.351562 62.25 70.25 79.148438 92.476562 96.921875 105.82031 114.71875 118.27344 127.17188 132.5 136.94531 144.94531 148.5 152.94531 157.39062 161.83594 170.73438 184.0625 192.96094 197.40625 201.85156 209.85156 218.75 227.64844 235.64844 244.54688 252.54688 256.99219 265.89062 270.33594 279.23438 284.5625 289.00781 297.90625 306.80469 310.35938 319.25781 322.8125 330.8125 334.36719 342.36719 345.92188 354.82031 363.71875 368.16406 377.0625 380.61719 384.17188 388.61719"
         y="0"
         sodipodi:role="line"
         id="tspan71">Lorem ipsum dolor sit, amet consectetur adipisicing elit.</tspan></text>
    <text
       id="text72"
       xml:space="preserve"
       transform="matrix(0.97303919,0,0,0.97303919,303.23855,564.36273)"
       clip-path="url(#clipPath73)"><tspan
         style="font-variant:normal;font-weight:normal;font-size:16px;font-family:Arial;writing-mode:lr-tb;fill:#000000;fill-opacity:1;fill-rule:nonzero;stroke:none"
         x="0 11.554688 20.453125 24.007812 32.90625 38.234375 47.132812 60.460938 69.359375 78.257812 87.15625 91.601562 95.15625 104.05469 112.05469 116.5 125.39844 129.84375 138.74219 142.29688 150.29688 154.74219 158.29688 167.19531 175.19531 179.64062 183.19531 192.09375 196.53906 205.4375 209.88281 214.32812 223.22656 232.125 245.45312 249.89844 254.34375 263.24219 271.24219 279.24219 288.14062 296.14062 305.03906 313.9375 318.38281 321.9375 330.83594 344.16406 348.60938 353.05469 361.95312 370.85156 378.85156 387.75 393.07812 401.97656 410.875 415.32031 419.76562 424.21094 433.10938 442.00781 450.90625 455.35156 464.25"
         y="0"
         sodipodi:role="line"
         id="tspan72">Doloremque iusto distinctio et nam, accusantium, deserunt tenetur</tspan></text>
    <text
       id="text73"
       xml:space="preserve"
       transform="matrix(0.97303919,0,0,0.97303919,303.23855,581.87744)"
       clip-path="url(#clipPath74)"><tspan
         style="font-variant:normal;font-weight:normal;font-size:16px;font-family:Arial;writing-mode:lr-tb;fill:#000000;fill-opacity:1;fill-rule:nonzero;stroke:none"
         x="0 8.8984375 17.796875 25.796875 30.242188 39.140625 48.039062 56.039062 60.484375 65.8125 74.710938 88.039062 92.484375 101.38281 109.38281 117.38281 126.28125 139.60938 148.50781 157.40625 166.30469 175.20312 179.64844 188.54688 197.44531 201 209.89844 215.22656 224.125 237.45312 241.89844 247.22656 256.125 269.45312 273.89844 282.79688 290.79688 298.79688 307.69531 312.14062 321.03906 324.59375 328.14844 337.04688 345.94531 349.5 358.39844 362.84375 371.74219 380.64062 389.53906 398.4375"
         y="0"
         sodipodi:role="line"
         id="tspan73">eos nostrum assumenda dolorem rem esse aliquid neque</tspan></text>
    <text
       id="text74"
       xml:space="preserve"
       transform="matrix(0.97303919,0,0,0.97303919,303.23855,599.39214)"
       clip-path="url(#clipPath75)"><tspan
         style="font-variant:normal;font-weight:normal;font-size:16px;font-family:Arial;writing-mode:lr-tb;fill:#000000;fill-opacity:1;fill-rule:nonzero;stroke:none"
         x="0 8 16.898438 25.796875 33.796875 42.695312 51.59375 60.492188 69.390625 73.835938 82.734375 88.0625 92.507812 100.50781 109.40625 118.30469 121.85938 130.75781 144.08594 148.53125 156.53125 165.42969 178.75781 192.08594 200.98438 209.88281 213.4375 217.88281 226.78125 235.67969 240.125 249.02344 257.92188 263.25 268.57812 277.47656 281.92188 295.25 298.80469 307.70312 316.60156 324.60156"
         y="0"
         sodipodi:role="line"
         id="tspan74">consequatur veniam commodi ab porro minus?</tspan></text>
    <text
       id="text75"
       xml:space="preserve"
       transform="matrix(0.97303919,0,0,0.97303919,288.64296,632.47547)"
       clip-path="url(#clipPath76)"><tspan
         style="font-variant:normal;font-weight:700;font-size:16px;font-family:Arial;writing-mode:lr-tb;fill:#000080;fill-opacity:1;fill-rule:nonzero;stroke:none"
         x="0 11.554688 23.109375"
         y="0"
         sodipodi:role="line"
         id="tspan75">CBS</tspan></text>
    <path
       id="path77"
       d="m 301,679.5 c -3e-5,0.33148 -0.0635,0.65039 -0.19037,0.9566 -0.12686,0.30628 -0.30749,0.57666 -0.5419,0.8111 -0.23444,0.23438 -0.50479,0.41504 -0.81106,0.54193 -0.30628,0.12689 -0.62516,0.19031 -0.95667,0.19037 -0.33154,-6e-5 -0.65045,-0.0635 -0.95673,-0.19037 -0.3063,-0.12689 -0.57666,-0.30755 -0.81106,-0.54193 -0.23441,-0.23444 -0.41507,-0.50482 -0.54196,-0.8111 -0.12686,-0.30621 -0.19028,-0.62512 -0.19025,-0.9566 -3e-5,-0.3316 0.0634,-0.65051 0.19025,-0.95679 0.12689,-0.30633 0.30755,-0.57666 0.54196,-0.81103 0.2344,-0.23444 0.50476,-0.41504 0.81106,-0.54193 C 297.84955,677.06342 298.16846,677 298.5,677 c 0.33151,0 0.65039,0.0634 0.95667,0.19025 0.30627,0.12689 0.57662,0.30749 0.81106,0.54193 0.23441,0.23437 0.41504,0.5047 0.5419,0.81103 0.12689,0.30628 0.19034,0.62519 0.19037,0.95679 z"
       style="fill:#000000;fill-opacity:1;fill-rule:nonzero;stroke:none"
       transform="scale(0.97303919)"
       clip-path="url(#clipPath78)" />
    <text
       id="text78"
       xml:space="preserve"
       transform="matrix(0.97303919,0,0,0.97303919,303.23855,665.55881)"
       clip-path="url(#clipPath79)"><tspan
         style="font-variant:normal;font-weight:normal;font-size:16px;font-family:Arial;writing-mode:lr-tb;fill:#000000;fill-opacity:1;fill-rule:nonzero;stroke:none"
         x="0 8.8984375 17.796875 23.125 32.023438 45.351562 49.796875 53.351562 62.25 70.25 79.148438 92.476562 96.921875 105.82031 114.71875 118.27344 127.17188 132.5 136.94531 144.94531 148.5 152.94531 157.39062 161.83594 170.73438 184.0625 192.96094 197.40625 201.85156 209.85156 218.75 227.64844 235.64844 244.54688 252.54688 256.99219 265.89062 270.33594 279.23438 284.5625 289.00781 297.90625 306.80469 310.35938 319.25781 322.8125 330.8125 334.36719 342.36719 345.92188 354.82031 363.71875 368.16406 377.0625 380.61719 384.17188 388.61719"
         y="0"
         sodipodi:role="line"
         id="tspan78">Lorem ipsum dolor sit, amet consectetur adipisicing elit.</tspan></text>
    <text
       id="text79"
       xml:space="preserve"
       transform="matrix(0.97303919,0,0,0.97303919,303.23855,683.07351)"
       clip-path="url(#clipPath80)"><tspan
         style="font-variant:normal;font-weight:normal;font-size:16px;font-family:Arial;writing-mode:lr-tb;fill:#000000;fill-opacity:1;fill-rule:nonzero;stroke:none"
         x="0 11.554688 20.453125 24.007812 32.90625 38.234375 47.132812 60.460938 69.359375 78.257812 87.15625 91.601562 95.15625 104.05469 112.05469 116.5 125.39844 129.84375 138.74219 142.29688 150.29688 154.74219 158.29688 167.19531 175.19531 179.64062 183.19531 192.09375 196.53906 205.4375 209.88281 214.32812 223.22656 232.125 245.45312 249.89844 254.34375 263.24219 271.24219 279.24219 288.14062 296.14062 305.03906 313.9375 318.38281 321.9375 330.83594 344.16406 348.60938 353.05469 361.95312 370.85156 378.85156 387.75 393.07812 401.97656 410.875 415.32031 419.76562 424.21094 433.10938 442.00781 450.90625 455.35156 464.25"
         y="0"
         sodipodi:role="line"
         id="tspan79">Doloremque iusto distinctio et nam, accusantium, deserunt tenetur</tspan></text>
    <text
       id="text80"
       xml:space="preserve"
       transform="matrix(0.97303919,0,0,0.97303919,303.23855,700.58822)"
       clip-path="url(#clipPath81)"><tspan
         style="font-variant:normal;font-weight:normal;font-size:16px;font-family:Arial;writing-mode:lr-tb;fill:#000000;fill-opacity:1;fill-rule:nonzero;stroke:none"
         x="0 8.8984375 17.796875 25.796875 30.242188 39.140625 48.039062 56.039062 60.484375 65.8125 74.710938 88.039062 92.484375 101.38281 109.38281 117.38281 126.28125 139.60938 148.50781 157.40625 166.30469 175.20312 179.64844 188.54688 197.44531 201 209.89844 215.22656 224.125 237.45312 241.89844 247.22656 256.125 269.45312 273.89844 282.79688 290.79688 298.79688 307.69531 312.14062 321.03906 324.59375 328.14844 337.04688 345.94531 349.5 358.39844 362.84375 371.74219 380.64062 389.53906 398.4375"
         y="0"
         sodipodi:role="line"
         id="tspan80">eos nostrum assumenda dolorem rem esse aliquid neque</tspan></text>
    <text
       id="text81"
       xml:space="preserve"
       transform="matrix(0.97303919,0,0,0.97303919,303.23855,718.10292)"
       clip-path="url(#clipPath82)"><tspan
         style="font-variant:normal;font-weight:normal;font-size:16px;font-family:Arial;writing-mode:lr-tb;fill:#000000;fill-opacity:1;fill-rule:nonzero;stroke:none"
         x="0 8 16.898438 25.796875 33.796875 42.695312 51.59375 60.492188 69.390625 73.835938 82.734375 88.0625 92.507812 100.50781 109.40625 118.30469 121.85938 130.75781 144.08594 148.53125 156.53125 165.42969 178.75781 192.08594 200.98438 209.88281 213.4375 217.88281 226.78125 235.67969 240.125 249.02344 257.92188 263.25 268.57812 277.47656 281.92188 295.25 298.80469 307.70312 316.60156 324.60156"
         y="0"
         sodipodi:role="line"
         id="tspan81">consequatur veniam commodi ab porro minus?</tspan></text>
    <text
       id="text82"
       xml:space="preserve"
       transform="matrix(0.97303919,0,0,0.97303919,288.64296,751.18626)"
       clip-path="url(#clipPath83)"><tspan
         style="font-variant:normal;font-weight:700;font-size:16px;font-family:Arial;writing-mode:lr-tb;fill:#000080;fill-opacity:1;fill-rule:nonzero;stroke:none"
         x="0 11.554688 20.453125 29.351562 33.796875 43.570312"
         y="0"
         sodipodi:role="line"
         id="tspan82">Devign</tspan></text>
    <path
       id="path84"
       d="m 301,801.5 c -3e-5,0.33148 -0.0635,0.65033 -0.19037,0.95667 -0.12686,0.30621 -0.30749,0.57659 -0.5419,0.81109 -0.23444,0.23438 -0.50479,0.41504 -0.81106,0.54193 -0.30628,0.12683 -0.62516,0.19025 -0.95667,0.19031 -0.33154,-6e-5 -0.65045,-0.0635 -0.95673,-0.19031 -0.3063,-0.12689 -0.57666,-0.30755 -0.81106,-0.54193 -0.23441,-0.2345 -0.41507,-0.50488 -0.54196,-0.81109 -0.12686,-0.30634 -0.19028,-0.62519 -0.19025,-0.95667 -3e-5,-0.3316 0.0634,-0.65051 0.19025,-0.95679 0.12689,-0.30633 0.30755,-0.57666 0.54196,-0.81103 0.2344,-0.23444 0.50476,-0.4151 0.81106,-0.54193 C 297.84955,799.06342 298.16846,799 298.5,799 c 0.33151,0 0.65039,0.0634 0.95667,0.19019 0.30627,0.12689 0.57662,0.30755 0.81106,0.54199 0.23441,0.23437 0.41504,0.5047 0.5419,0.81103 0.12689,0.30628 0.19034,0.62519 0.19037,0.95679 z"
       style="fill:#000000;fill-opacity:1;fill-rule:nonzero;stroke:none"
       transform="scale(0.97303919)"
       clip-path="url(#clipPath85)" />
    <text
       id="text85"
       xml:space="preserve"
       transform="matrix(0.97303919,0,0,0.97303919,303.23855,784.26959)"
       clip-path="url(#clipPath86)"><tspan
         style="font-variant:normal;font-weight:normal;font-size:16px;font-family:Arial;writing-mode:lr-tb;fill:#000000;fill-opacity:1;fill-rule:nonzero;stroke:none"
         x="0 8.8984375 17.796875 23.125 32.023438 45.351562 49.796875 53.351562 62.25 70.25 79.148438 92.476562 96.921875 105.82031 114.71875 118.27344 127.17188 132.5 136.94531 144.94531 148.5 152.94531 157.39062 161.83594 170.73438 184.0625 192.96094 197.40625 201.85156 209.85156 218.75 227.64844 235.64844 244.54688 252.54688 256.99219 265.89062 270.33594 279.23438 284.5625 289.00781 297.90625 306.80469 310.35938 319.25781 322.8125 330.8125 334.36719 342.36719 345.92188 354.82031 363.71875 368.16406 377.0625 380.61719 384.17188 388.61719"
         y="0"
         sodipodi:role="line"
         id="tspan85">Lorem ipsum dolor sit, amet consectetur adipisicing elit.</tspan></text>
    <text
       id="text86"
       xml:space="preserve"
       transform="matrix(0.97303919,0,0,0.97303919,303.23855,801.78429)"
       clip-path="url(#clipPath87)"><tspan
         style="font-variant:normal;font-weight:normal;font-size:16px;font-family:Arial;writing-mode:lr-tb;fill:#000000;fill-opacity:1;fill-rule:nonzero;stroke:none"
         x="0 11.554688 20.453125 24.007812 32.90625 38.234375 47.132812 60.460938 69.359375 78.257812 87.15625 91.601562 95.15625 104.05469 112.05469 116.5 125.39844 129.84375 138.74219 142.29688 150.29688 154.74219 158.29688 167.19531 175.19531 179.64062 183.19531 192.09375 196.53906 205.4375 209.88281 214.32812 223.22656 232.125 245.45312 249.89844 254.34375 263.24219 271.24219 279.24219 288.14062 296.14062 305.03906 313.9375 318.38281 321.9375 330.83594 344.16406 348.60938 353.05469 361.95312 370.85156 378.85156 387.75 393.07812 401.97656 410.875 415.32031 419.76562 424.21094 433.10938 442.00781 450.90625 455.35156 464.25"
         y="0"
         sodipodi:role="line"
         id="tspan86">Doloremque iusto distinctio et nam, accusantium, deserunt tenetur</tspan></text>
    <text
       id="text87"
       xml:space="preserve"
       transform="matrix(0.97303919,0,0,0.97303919,303.23855,819.299)"
       clip-path="url(#clipPath88)"><tspan
         style="font-variant:normal;font-weight:normal;font-size:16px;font-family:Arial;writing-mode:lr-tb;fill:#000000;fill-opacity:1;fill-rule:nonzero;stroke:none"
         x="0 8.8984375 17.796875 25.796875 30.242188 39.140625 48.039062 56.039062 60.484375 65.8125 74.710938 88.039062 92.484375 101.38281 109.38281 117.38281 126.28125 139.60938 148.50781 157.40625 166.30469 175.20312 179.64844 188.54688 197.44531 201 209.89844 215.22656 224.125 237.45312 241.89844 247.22656 256.125 269.45312 273.89844 282.79688 290.79688 298.79688 307.69531 312.14062 321.03906 324.59375 328.14844 337.04688 345.94531 349.5 358.39844 362.84375 371.74219 380.64062 389.53906 398.4375"
         y="0"
         sodipodi:role="line"
         id="tspan87">eos nostrum assumenda dolorem rem esse aliquid neque</tspan></text>
    <text
       id="text88"
       xml:space="preserve"
       transform="matrix(0.97303919,0,0,0.97303919,303.23855,836.8137)"
       clip-path="url(#clipPath89)"><tspan
         style="font-variant:normal;font-weight:normal;font-size:16px;font-family:Arial;writing-mode:lr-tb;fill:#000000;fill-opacity:1;fill-rule:nonzero;stroke:none"
         x="0 8 16.898438 25.796875 33.796875 42.695312 51.59375 60.492188 69.390625 73.835938 82.734375 88.0625 92.507812 100.50781 109.40625 118.30469 121.85938 130.75781 144.08594 148.53125 156.53125 165.42969 178.75781 192.08594 200.98438 209.88281 213.4375 217.88281 226.78125 235.67969 240.125 249.02344 257.92188 263.25 268.57812 277.47656 281.92188 295.25 298.80469 307.70312 316.60156 324.60156"
         y="0"
         sodipodi:role="line"
         id="tspan88">consequatur veniam commodi ab porro minus?</tspan></text>
    <text
       id="text89"
       xml:space="preserve"
       transform="matrix(0.97303919,0,0,0.97303919,283.77776,876.70831)"
       clip-path="url(#clipPath90)"><tspan
         style="font-variant:normal;font-weight:700;font-size:18.71px;font-family:Arial;writing-mode:lr-tb;fill:#000080;fill-opacity:1;fill-rule:nonzero;stroke:none"
         x="0 12.479416 23.908218 35.337021 45.74263 56.148239 62.378815 67.577042 79.005844"
         y="0"
         sodipodi:role="line"
         id="tspan89">Education</tspan></text>
    <text
       id="text90"
       xml:space="preserve"
       transform="matrix(0.97303919,0,0,0.97303919,288.64296,910.76468)"
       clip-path="url(#clipPath91)"><tspan
         style="font-variant:normal;font-weight:700;font-size:16px;font-family:Arial;writing-mode:lr-tb;fill:#000080;fill-opacity:1;fill-rule:nonzero;stroke:none"
         x="0 11.554688 22.226562"
         y="0"
         sodipodi:role="line"
         id="tspan90">BSC</tspan></text>
    <text
       id="text91"
       xml:space="preserve"
       transform="matrix(0.97303919,0,0,0.97303919,288.64296,937.03674)"
       clip-path="url(#clipPath92)"><tspan
         style="font-variant:normal;font-weight:normal;font-size:14px;font-family:Arial;writing-mode:lr-tb;fill:#000000;fill-opacity:1;fill-rule:nonzero;stroke:none"
         x="0 10.110352 19.448242 29.558594 33.448242 41.234375 49.020508 52.130859 59.130859 66.916992 71.579102 78.579102 81.689453 85.579102 90.241211"
         y="0"
         sodipodi:role="line"
         id="tspan91">NED universitry</tspan></text>
    <text
       id="text92"
       xml:space="preserve"
       transform="matrix(0.97303919,0,0,0.97303919,288.64296,969.14703)"
       clip-path="url(#clipPath93)"><tspan
         style="font-variant:normal;font-weight:700;font-size:16px;font-family:Arial;writing-mode:lr-tb;fill:#000080;fill-opacity:1;fill-rule:nonzero;stroke:none"
         x="0 5.328125 16"
         y="0"
         sodipodi:role="line"
         id="tspan92">fSC</tspan></text>
    <text
       id="text93"
       xml:space="preserve"
       transform="matrix(0.97303919,0,0,0.97303919,288.64296,995.41909)"
       clip-path="url(#clipPath94)"><tspan
         style="font-variant:normal;font-weight:normal;font-size:14px;font-family:Arial;writing-mode:lr-tb;fill:#000000;fill-opacity:1;fill-rule:nonzero;stroke:none"
         x="0 10.889648 18.675781 25.675781 33.461914 38.124023 45.910156 57.572266 65.358398 73.144531 77.03418 80.923828 91.03418 98.820312 106.60645 109.7168 112.82715 116.7168 123.7168 131.50293 134.61328 137.72363 145.50977 153.2959"
         y="0"
         sodipodi:role="line"
         id="tspan93">Government Dehli college</tspan></text>
    <text
       id="text94"
       xml:space="preserve"
       transform="matrix(0.97303919,0,0,0.97303919,288.64296,1027.5294)"
       clip-path="url(#clipPath95)"><tspan
         style="font-variant:normal;font-weight:700;font-size:16px;font-family:Arial;writing-mode:lr-tb;fill:#000080;fill-opacity:1;fill-rule:nonzero;stroke:none"
         x="0 13.328125 22.226562 27.554688 33.78125 38.226562"
         y="0"
         sodipodi:role="line"
         id="tspan94">Matric</tspan></text>
    <text
       id="text95"
       xml:space="preserve"
       transform="matrix(0.97303919,0,0,0.97303919,288.64296,1053.8014)"
       clip-path="url(#clipPath96)"><tspan
         style="font-variant:normal;font-weight:normal;font-size:14px;font-family:Arial;writing-mode:lr-tb;fill:#000000;fill-opacity:1;fill-rule:nonzero;stroke:none"
         x="0 10.110352 13.220703 17.110352 24.110352 28 37.337891 44.337891 52.124023 59.910156 67.696289"
         y="0"
         sodipodi:role="line"
         id="tspan95">City School</tspan></text>
  </g>
</svg>
